<svg width="18" height="18" viewBox="0 0 18 18" fill="none" xmlns="http://www.w3.org/2000/svg">
<path d="M5.34748 0.83576L5.4256 0.913885L8.99982 4.4881L11.7342 1.7342C12.1509 1.33055 12.6326 1.05711 13.1795 0.913885C13.7264 0.770656 14.2733 0.770656 14.8201 0.913885C15.367 1.05711 15.8423 1.33055 16.2459 1.7342C16.6496 2.13784 16.923 2.60008 17.0662 3.12092C17.2095 3.64175 17.2225 4.16909 17.1053 4.70295C16.9881 5.2368 16.7472 5.71206 16.3826 6.12873L13.5115 8.99982L17.0858 12.574C17.242 12.7303 17.3266 12.9126 17.3397 13.1209C17.3527 13.3292 17.2941 13.5115 17.1639 13.6678L17.0858 13.7654L13.7654 17.0858C13.6092 17.242 13.4269 17.3266 13.2186 17.3397C13.0102 17.3527 12.8214 17.2941 12.6522 17.1639L12.574 17.0858L8.99982 13.5115L5.4256 17.0858C5.2954 17.216 5.13264 17.2941 4.93732 17.3201L4.83967 17.3397H1.49982C1.29149 17.3397 1.10594 17.2681 0.943182 17.1248C0.780421 16.9816 0.692531 16.8058 0.67951 16.5975L0.659979 13.16C0.659979 12.9777 0.718572 12.8084 0.83576 12.6522L0.913885 12.574L4.4881 8.99982L0.913885 5.4256C0.757635 5.26935 0.673 5.08706 0.659979 4.87873C0.646958 4.6704 0.705552 4.4881 0.83576 4.33185L0.913885 4.2342L4.2342 0.913885C4.39045 0.757635 4.57274 0.673 4.78107 0.659979C4.98941 0.646958 5.17821 0.705552 5.34748 0.83576ZM11.0897 4.76154L2.33967 13.5115V15.66H4.4881L13.2381 6.90998L11.0897 4.76154ZM12.3397 10.1717L10.1717 12.3397L11.0897 13.2381L11.7342 12.574C11.9035 12.4178 12.102 12.3397 12.3299 12.3397C12.5578 12.3397 12.7498 12.4178 12.9061 12.574C13.0623 12.7303 13.147 12.9126 13.16 13.1209C13.173 13.3292 13.1144 13.5115 12.9842 13.6678L12.2615 14.41L13.16 15.3279L15.3279 13.16L12.3397 10.1717ZM4.83967 2.6717L2.6717 4.83967L3.58967 5.7381L4.2342 5.07404C4.40347 4.91779 4.60204 4.83967 4.8299 4.83967C5.05777 4.83967 5.24982 4.91779 5.40607 5.07404C5.56232 5.23029 5.64696 5.41258 5.65998 5.62092C5.673 5.82925 5.61441 6.01154 5.4842 6.16779L4.76154 6.90998L5.65998 7.82795L7.82795 5.65998L4.83967 2.6717ZM13.0233 2.82795L12.9256 2.9256L12.2615 3.58967L14.41 5.7381L15.074 5.07404C15.3605 4.8006 15.5102 4.46532 15.5233 4.06818C15.5363 3.67105 15.4191 3.32274 15.1717 3.02326L15.074 2.9256C14.8006 2.63915 14.4653 2.48941 14.0682 2.47638C13.671 2.46336 13.3227 2.58055 13.0233 2.82795Z" fill="#18191B"/>
</svg>
