<svg width="22" height="19" viewBox="0 0 22 19" fill="none" xmlns="http://www.w3.org/2000/svg">
<path d="M12.0312 0.74986C12.1094 0.46861 12.2656 0.265485 12.5 0.140485C12.75 -0.000139505 13.0078 -0.0313895 13.2734 0.0467355C13.5547 0.109235 13.7578 0.273298 13.8828 0.538923L16.6953 7.99205H20C20.25 7.99205 20.4688 8.07799 20.6562 8.24986C20.8594 8.42174 20.9688 8.63267 20.9844 8.88267L21.0078 8.99986C21.0078 9.24986 20.9219 9.47642 20.75 9.67955C20.5781 9.86705 20.3672 9.96861 20.1172 9.98424L15.9922 10.0077C15.8047 10.0077 15.6328 9.9608 15.4766 9.86705C15.3203 9.75767 15.2031 9.62486 15.125 9.46861L15.0547 9.35142L13.1797 4.35924L9.96875 17.2499C9.89062 17.5311 9.72656 17.742 9.47656 17.8827C9.24219 18.0077 8.98438 18.0389 8.70312 17.9764C8.4375 17.8983 8.24219 17.7264 8.11719 17.4608L5.30469 10.0077H2C1.75 10.0077 1.52344 9.92174 1.32031 9.74986C1.13281 9.57799 1.03125 9.36705 1.01562 9.11705L0.992188 8.99986C0.992188 8.74986 1.07812 8.53111 1.25 8.34361C1.42188 8.14049 1.63281 8.03111 1.88281 8.01549L6.00781 7.99205C6.19531 7.99205 6.36719 8.04674 6.52344 8.15611C6.67969 8.24986 6.79688 8.37486 6.875 8.53111L6.94531 8.6483L8.79688 13.6405L12.0312 0.74986Z" fill="#18191B"/>
</svg>
