<svg width="12" height="20" viewBox="0 0 12 20" fill="none" xmlns="http://www.w3.org/2000/svg">
<path d="M9 0.496094C9.25 0.496094 9.47266 0.582031 9.66797 0.753906C9.86328 0.925781 9.96875 1.13672 9.98438 1.38672L10.0078 4.50391H10.9922C11.2578 4.50391 11.4844 4.58984 11.6719 4.76172C11.8594 4.93359 11.9688 5.14453 12 5.39453V11.5117C12 12.2148 11.832 12.8633 11.4961 13.457C11.1602 14.0508 10.6992 14.5312 10.1133 14.8984C9.52734 15.2656 8.89062 15.4648 8.20312 15.4961H7.00781V16.5039C7.00781 16.7539 7.08984 16.9766 7.25391 17.1719C7.41797 17.3672 7.625 17.4727 7.875 17.4883L10.9922 17.5117C11.2734 17.5117 11.5117 17.6094 11.707 17.8047C11.9023 18 12 18.2305 12 18.4961C12 18.7617 11.9141 18.9883 11.7422 19.1758C11.5703 19.3633 11.3594 19.4727 11.1094 19.5039H7.99219C7.47656 19.5039 6.99609 19.3789 6.55078 19.1289C6.10547 18.8789 5.74219 18.5391 5.46094 18.1094C5.17969 17.6797 5.03125 17.207 5.01562 16.6914L4.99219 15.4961H4.00781C3.30469 15.4961 2.65234 15.3281 2.05078 14.9922C1.44922 14.6562 0.964844 14.1992 0.597656 13.6211C0.230469 13.043 0.03125 12.4023 0 11.6992V5.51172C0 5.24609 0.0859375 5.01953 0.257812 4.83203C0.429688 4.64453 0.640625 4.53516 0.890625 4.50391H1.99219V1.50391C1.99219 1.22266 2.08984 0.984375 2.28516 0.789062C2.48047 0.59375 2.71094 0.496094 2.97656 0.496094C3.24219 0.496094 3.47266 0.582031 3.66797 0.753906C3.86328 0.925781 3.96875 1.13672 3.98438 1.38672L4.00781 4.50391H7.99219V1.50391C7.99219 1.22266 8.08984 0.984375 8.28516 0.789062C8.48047 0.59375 8.71875 0.496094 9 0.496094ZM10.0078 6.49609H1.99219V11.5117C1.99219 12.0273 2.17188 12.4766 2.53125 12.8594C2.89062 13.2422 3.32812 13.457 3.84375 13.5039H7.99219C8.52344 13.5039 8.98047 13.3242 9.36328 12.9648C9.74609 12.6055 9.95312 12.168 9.98438 11.6523L10.0078 6.49609Z" fill="#18191B"/>
</svg>
