<svg width="40" height="40" viewBox="0 0 40 40" fill="none" xmlns="http://www.w3.org/2000/svg">
<rect x="0.5" y="0.5" width="39" height="39" rx="19.5" fill="#FFEBEB"/>
<path d="M16.5308 15.4699C16.2379 15.177 15.7631 15.177 15.4702 15.4699C15.1773 15.7628 15.1773 16.2377 15.4702 16.5306L16.5308 15.4699ZM23.4697 24.5301C23.7626 24.823 24.2374 24.823 24.5303 24.5301C24.8232 24.2372 24.8232 23.7623 24.5303 23.4694L23.4697 24.5301ZM15.4702 16.5306L19.3446 20.405L20.4053 19.3444L16.5308 15.4699L15.4702 16.5306ZM19.3446 20.405L23.4697 24.5301L24.5303 23.4694L20.4053 19.3444L19.3446 20.405Z" fill="#CC0000"/>
<path d="M23.4697 15.4699C23.7626 15.177 24.2374 15.177 24.5303 15.4699C24.8232 15.7628 24.8232 16.2377 24.5303 16.5306L23.4697 15.4699ZM16.5303 24.5306C16.2374 24.8235 15.7626 24.8235 15.4697 24.5306C15.1768 24.2377 15.1768 23.7628 15.4697 23.4699L16.5303 24.5306ZM24.5303 16.5306L20.6559 20.405L19.5952 19.3444L23.4697 15.4699L24.5303 16.5306ZM20.6559 20.405L16.5303 24.5306L15.4697 23.4699L19.5952 19.3444L20.6559 20.405Z" fill="#CC0000"/>
<rect x="0.5" y="0.5" width="39" height="39" rx="19.5" stroke="white"/>
</svg>
