<svg width="22" height="23" viewBox="0 0 22 23" fill="none" xmlns="http://www.w3.org/2000/svg">
<path d="M10 1.99219C10.7031 1.99219 11.3281 2.21094 11.875 2.64844C12.4219 3.08594 12.7734 3.64062 12.9297 4.3125V4.35938C14.0859 5.01562 15.0234 5.90625 15.7422 7.03125C16.4609 8.14062 16.875 9.36719 16.9844 10.7109L17.0078 10.9922V13.9219L17.0312 14.0625C17.0938 14.4688 17.2344 14.8438 17.4531 15.1875C17.6875 15.5312 17.9766 15.8125 18.3203 16.0312L18.4844 16.125C18.7656 16.2812 18.9297 16.5078 18.9766 16.8047C19.0391 17.0859 18.9844 17.3516 18.8125 17.6016C18.6562 17.8359 18.4219 17.9688 18.1094 18H14.0078C14.0078 18.7188 13.8281 19.3906 13.4688 20.0156C13.1094 20.625 12.6172 21.1094 11.9922 21.4688C11.3828 21.8281 10.7188 22.0078 10 22.0078C9.29688 22.0078 8.64062 21.8359 8.03125 21.4922C7.4375 21.1484 6.96094 20.6875 6.60156 20.1094C6.24219 19.5312 6.04688 18.8984 6.01562 18.2109L5.99219 18H2.00781C1.67969 18 1.42188 17.8906 1.23438 17.6719C1.0625 17.4375 0.984375 17.1797 1 16.8984C1.03125 16.6016 1.16406 16.3672 1.39844 16.1953L1.51562 16.125C1.89062 15.9062 2.20312 15.6172 2.45312 15.2578C2.71875 14.8984 2.89062 14.5 2.96875 14.0625L2.99219 13.9219V10.9453C3.05469 9.61719 3.42188 8.38281 4.09375 7.24219C4.78125 6.10156 5.6875 5.1875 6.8125 4.5L7.07031 4.35938V4.3125C7.22656 3.67188 7.55469 3.14062 8.05469 2.71875C8.57031 2.28125 9.15625 2.04688 9.8125 2.01562L10 1.99219ZM11.9922 18H8.00781C8.00781 18.5469 8.20312 19.0156 8.59375 19.4062C8.98438 19.7969 9.44531 19.9922 9.97656 19.9922C10.5234 19.9922 10.9844 19.8203 11.3594 19.4766C11.75 19.1172 11.9609 18.6719 11.9922 18.1406V18ZM10 4.00781C9.75 4.00781 9.52344 4.09375 9.32031 4.26562C9.13281 4.42188 9.03125 4.625 9.01562 4.875L8.99219 5.10938C8.97656 5.23438 8.94531 5.34375 8.89844 5.4375L8.85156 5.53125C8.78906 5.625 8.71094 5.71094 8.61719 5.78906L8.42969 5.90625C7.46094 6.35938 6.67188 7.02344 6.0625 7.89844C5.45312 8.75781 5.10156 9.71094 5.00781 10.7578V10.9922L4.98438 14.1094C4.92188 14.6875 4.76562 15.2266 4.51562 15.7266L4.375 16.0078H15.625V15.9844C15.3281 15.4844 15.1328 14.9453 15.0391 14.3672L15.0156 14.1094L14.9922 11.0391C14.9453 9.92969 14.6094 8.91406 13.9844 7.99219C13.375 7.07031 12.5703 6.375 11.5703 5.90625C11.4141 5.82812 11.2812 5.72656 11.1719 5.60156C11.0781 5.46094 11.0234 5.30469 11.0078 5.13281V4.99219C11.0078 4.72656 10.9062 4.5 10.7031 4.3125C10.5156 4.10938 10.2812 4.00781 10 4.00781ZM19 0C19.5469 0 20.0469 0.132812 20.5 0.398438C20.9688 0.664062 21.3359 1.03125 21.6016 1.5C21.8672 1.95312 22 2.45312 22 3C22 3.54688 21.8672 4.05469 21.6016 4.52344C21.3359 4.97656 20.9688 5.33594 20.5 5.60156C20.0469 5.86719 19.5469 6 19 6C18.4531 6 17.9453 5.86719 17.4766 5.60156C17.0234 5.33594 16.6641 4.97656 16.3984 4.52344C16.1328 4.05469 16 3.54688 16 3C16 2.45312 16.1328 1.95312 16.3984 1.5C16.6641 1.03125 17.0234 0.664062 17.4766 0.398438C17.9453 0.132812 18.4531 0 19 0Z" fill="#18191B"/>
</svg>
