<svg width="40" height="46" viewBox="0 0 40 46" fill="none" xmlns="http://www.w3.org/2000/svg">
<mask id="mask0_15_6001" style="mask-type:alpha" maskUnits="userSpaceOnUse" x="0" y="0" width="40" height="46">
<path d="M21.5565 0.390704C23.01 1.17819 25.7424 2.39949 28.6047 3.61882L28.8866 3.73874C28.9807 3.77869 29.0749 3.81864 29.1691 3.85854L29.5369 4.01399C29.6865 4.07712 29.8362 4.14012 29.9857 4.20293L30.2845 4.32827C32.9709 5.45366 35.5748 6.50287 37.1532 7.11823C37.9896 7.44169 39.7398 8.11907 39.8481 9.98173C40.0958 14.2923 40.3902 25.0072 37.6332 31.5347C33.9469 40.3411 24.05 44.4204 21.1071 45.5293C20.7543 45.654 20.3823 45.7166 20.0074 45.7143C19.6484 45.7135 19.2919 45.651 18.9543 45.5291C16.0423 44.4206 6.06808 40.3412 2.38214 31.5657C-0.374893 25.0228 -0.127175 14.3079 0.182708 9.99713C0.291047 8.13445 2.02558 7.47244 2.86208 7.13363C4.60165 6.4537 7.56883 5.2595 10.5269 4.01584L11.0811 3.78218C14.0948 2.50815 17.0183 1.21284 18.5363 0.390704C19.4749 -0.130234 20.618 -0.130234 21.5565 0.390704ZM20.0706 2.08019L20.0712 2.08018C19.8981 2.0753 19.7271 2.11802 19.5766 2.20347C18.0347 3.05104 15.1428 4.34353 12.1413 5.61963L11.8505 5.74306C11.802 5.76362 11.7535 5.78416 11.705 5.8047L11.3336 5.96154C11.1805 6.02609 11.0274 6.0905 10.8745 6.15469L10.5688 6.28278C7.92285 7.39017 5.35968 8.42236 3.72877 9.06348C2.61556 9.49518 2.3992 9.77268 2.36828 10.0962L2.36131 10.2229L2.34733 10.4871C2.12145 14.875 1.92014 24.7863 4.42463 30.7525C7.79498 38.7531 17.0245 42.5916 19.7772 43.578H19.7777C19.9923 43.6557 20.2274 43.6557 20.4424 43.578C23.1635 42.5913 32.4395 38.7528 35.7167 30.7525C38.2986 24.5862 38.0203 14.2574 37.773 10.0962C37.773 9.77227 37.5257 9.49478 36.4125 9.06348C34.6598 8.34712 31.8121 7.19153 28.9459 5.98481L28.6332 5.85298C28.5811 5.83098 28.529 5.80897 28.4769 5.78695L28.1073 5.63043C25.0918 4.35126 22.1725 3.05737 20.6118 2.20389C20.4477 2.1103 20.2596 2.06717 20.0706 2.08019ZM21.2106 5.35082C22.4025 5.9978 24.7003 7.02057 27.0564 8.0211L27.3574 8.14868L27.5079 8.21232L27.809 8.33919L28.0727 8.44995C30.136 9.31515 32.1282 10.1192 33.3414 10.593C33.9919 10.8451 35.3532 11.3729 35.4374 12.8243C35.6301 16.1832 35.859 24.5324 33.7147 29.6189C30.8476 36.481 23.15 39.6596 20.8611 40.5237C20.5867 40.6209 20.2973 40.6696 20.0057 40.6678C19.7265 40.6673 19.4492 40.6185 19.1866 40.5235C16.9218 39.6598 9.16407 36.481 6.29722 29.643C4.15286 24.5446 4.34553 16.1954 4.58655 12.8363C4.67081 11.3849 6.01989 10.869 6.67051 10.605C7.99222 10.0875 10.2251 9.18751 12.4724 8.24276L12.7421 8.1292L13.1462 7.95833L13.4475 7.83029C15.6529 6.8913 17.7456 5.95635 18.8615 5.35082C19.5916 4.94489 20.4806 4.94489 21.2106 5.35082ZM10.5881 15.3179L10.5656 15.3194C10.5194 15.3244 10.4669 15.3415 10.4353 15.3655C9.82948 15.8242 9.73848 17.3283 10.3808 18.3882C10.4326 18.4738 10.5025 18.5921 10.569 18.7149L10.5954 18.7642C10.7823 19.1182 10.9179 19.4784 10.4967 19.1785L9.37273 18.1889C9.32721 18.1478 9.26744 18.1276 9.20588 18.1386C9.1489 18.146 9.07045 18.1966 9.04738 18.2499C8.81726 18.7819 8.97303 20.2668 9.87201 20.7561C9.97447 20.8121 10.0888 20.8805 10.2026 20.9519L10.2783 20.9999C10.6046 21.2086 10.9032 21.4243 10.8739 21.4184L9.34701 20.9068C9.28512 20.8772 9.21076 20.8772 9.15132 20.9117C9.10189 20.9388 9.05226 21.0105 9.0449 21.0674C8.92847 22.0115 9.53268 22.7554 10.5481 22.9187C10.8031 22.9607 11.1612 23.0221 11.6224 23.1028C11.6095 23.1044 11.1305 23.1217 10.1855 23.1546C10.1366 23.1549 10.0846 23.1784 10.0478 23.2152C10.0131 23.2498 9.98344 23.3189 9.98589 23.3685C9.99325 23.7195 10.1295 24.0186 10.3746 24.2262C10.7139 24.5152 11.2513 24.6339 11.853 24.5548C12.4722 24.4732 12.7148 24.6117 12.1451 24.7644L11.6896 24.8514C11.6177 24.8588 11.5558 24.9008 11.5213 24.9627C11.4966 25.0096 11.4966 25.0838 11.5164 25.1383C11.3951 25.037 11.2317 24.9505 11.0064 24.901C10.9494 24.8885 10.8899 24.9059 10.8479 24.9454C10.8058 24.985 10.786 25.0443 10.7933 25.1012C10.7948 25.1091 10.7962 25.1176 10.7975 25.1266L10.8046 25.1858L10.8107 25.252C10.5656 25.1754 10.1644 25.0198 9.91172 25.252C9.69868 25.4967 9.81756 25.9415 9.91172 26.1739C9.84983 26.1739 9.79284 26.1715 9.74831 26.1666C9.69357 26.159 9.63167 26.1837 9.59695 26.2308C9.55978 26.2752 9.54752 26.337 9.56468 26.3914C9.67621 26.7623 9.92623 27.0191 10.2679 27.1131C10.4536 27.1651 10.6518 27.1625 10.8078 27.1156C10.8301 27.1378 10.8572 27.1576 10.8846 27.1749C11.0159 27.2564 11.2437 27.3109 11.4418 27.1996L13.4278 29.0409C13.3559 29.1991 13.3337 29.3721 13.3635 29.545C13.4278 29.9132 13.7324 30.2123 14.1238 30.2889C14.3344 30.3309 14.5448 30.3087 14.7355 30.2296L15.2208 30.6696L15.2484 30.6921C15.3332 30.7561 15.4382 30.7875 15.5452 30.7809C15.6616 30.7735 15.773 30.7191 15.8473 30.6327C15.9192 30.5511 15.9513 30.4473 15.9439 30.3436C15.9366 30.2447 15.8894 30.1532 15.8226 30.0965L15.8152 30.0892L15.4041 29.7134C15.8696 29.4737 16.578 29.3081 17.192 29.3081C17.3108 29.3081 17.4148 29.2562 17.4743 29.1648C17.5337 29.0759 17.5435 28.9573 17.499 28.8533C17.3801 28.574 17.3258 28.1712 17.5041 28.0203C17.6949 27.8572 18.076 28.0103 18.3608 28.1883L18.405 28.2175C18.6088 28.3586 18.8781 28.6333 19.1086 29.1695C18.7603 29.2646 18.3992 29.3947 18.0529 29.552L17.9238 29.6123C17.09 30.0121 16.3652 30.5679 16.1517 31.1666C16.0922 31.3346 16.1169 31.5274 16.2236 31.7128C16.3821 31.9896 16.6991 32.212 17.0259 32.2738C17.0805 32.2862 17.1399 32.2738 17.1869 32.2416C17.2265 32.2145 17.2661 32.1552 17.2759 32.1081C17.4073 31.4284 17.7118 31.3566 17.5905 31.8708C17.4618 32.4145 18.0337 32.8742 18.5019 32.9953C18.5638 33.0126 18.6282 32.9977 18.6802 32.9606C18.7223 32.9284 18.7619 32.8593 18.7644 32.8073C18.8138 32.0239 19.0367 32.2384 19.0367 32.7307C19.0367 33.1497 19.4487 33.4477 19.7296 33.6024L19.7876 33.6334C19.7969 33.6381 19.8059 33.6427 19.8147 33.6472L19.8645 33.6714L19.9257 33.6994C19.9479 33.7092 19.9726 33.7143 19.9976 33.7143C20.0174 33.7143 20.0372 33.7118 20.057 33.7045L20.1114 33.6825L20.1702 33.656L20.2185 33.6326L20.2726 33.6049C20.282 33.5999 20.2917 33.5947 20.3015 33.5893L20.3621 33.555C20.632 33.3967 20.9831 33.1162 20.9831 32.7306C20.9831 32.2645 21.2035 32.0236 21.2554 32.8049C21.2579 32.8666 21.2902 32.9235 21.342 32.9606C21.3841 32.9902 21.4658 33.0051 21.5179 32.9928C21.9834 32.8717 22.558 32.412 22.4267 31.8683C22.3029 31.3541 22.6074 31.4259 22.7388 32.1056C22.7486 32.16 22.7808 32.2069 22.8254 32.2391C22.865 32.2662 22.9369 32.2811 22.9839 32.2713C23.3158 32.2071 23.6301 31.9872 23.7911 31.7078C23.8976 31.5225 23.9225 31.3297 23.863 31.1617C23.6002 30.4248 22.563 29.7529 21.5011 29.3569L21.3683 29.3088C21.2133 29.2545 21.0585 29.2062 20.9061 29.1646C21.1537 28.5862 21.446 28.3118 21.6539 28.1834C21.9362 28.0078 22.415 27.8597 22.6056 28.0203C22.7839 28.1712 22.6346 28.5664 22.5133 28.8484C22.4688 28.9546 22.4786 29.0708 22.538 29.1599C22.5974 29.2514 22.7014 29.3032 22.8203 29.3032C23.6102 29.3032 24.5686 29.5874 24.9326 29.926C25.2421 30.3684 25.7819 30.6057 26.3541 30.5537C27.0476 30.4871 27.6097 29.9754 27.6889 29.3401C27.7557 28.8038 27.4908 28.2947 26.9954 28.0079C26.9335 27.9732 26.915 27.9351 26.7998 28.0203C26.6845 28.1055 26.583 28.7815 26.2272 28.7815C25.9899 28.7815 25.778 28.5278 25.5913 28.0203L25.5715 28.007C25.5169 27.9753 25.4485 27.9751 25.3956 28.0079C25.1033 28.1785 24.888 28.4305 24.7789 28.7295L24.707 28.7288C24.3683 28.719 23.8602 28.6092 23.6498 28.522C24.2118 27.7024 24.2589 27.0923 24.1714 26.6924L24.1581 26.6367L24.1508 26.6099L24.1351 26.5585C24.1324 26.5502 24.1296 26.542 24.1268 26.5339L24.1095 26.4868L24.0912 26.4426C24.0881 26.4354 24.085 26.4284 24.0819 26.4215L24.0629 26.3816L24.0436 26.3445C23.8169 25.9274 23.357 25.8671 22.8228 25.8638L22.715 25.8638C22.6788 25.864 22.6423 25.8643 22.6056 25.8648C22.3872 24.8992 22.7496 24.4273 23.6928 24.4491L23.7613 24.4338C23.7724 24.4315 23.7834 24.4294 23.7942 24.4273L23.8566 24.4164L23.9141 24.4081L23.9658 24.4019C24.1143 25.178 24.3621 25.791 24.6691 26.137C24.9538 26.4583 25.3601 26.6461 25.7784 26.6487L25.8392 26.6478C26.1606 26.6361 26.4494 26.5143 26.6351 26.3076C26.6772 26.2607 26.6945 26.199 26.6845 26.137C26.6772 26.085 26.63 26.0184 26.583 25.9912L25.9187 25.5148C25.5717 25.2093 25.9961 25.3486 26.4516 25.5637C27.2811 25.9543 28.0911 25.7861 28.4675 25.1533C28.5047 25.094 28.5071 25.0198 28.4749 24.9556C28.4477 24.9011 28.366 24.8469 28.3039 24.8418C28.2981 24.8413 28.1307 24.8076 27.8019 24.7405C27.2349 24.5808 27.5238 24.4636 28.143 24.5452C28.7447 24.6243 29.2846 24.5056 29.6214 24.2165C29.8665 24.0063 30.0027 23.7099 30.0101 23.3564C30.0101 23.2996 29.9878 23.2451 29.9482 23.2056C29.9135 23.1709 29.8442 23.1389 29.7897 23.1463L28.3165 23.0839C28.4936 23.0576 28.6552 23.0333 28.8015 23.0111L28.9426 22.9895C29.1465 22.9582 29.3158 22.9314 29.4504 22.9092C30.4509 22.7485 31.07 21.9873 30.9535 21.0603C30.9486 21.0034 30.899 20.9292 30.8471 20.9021C30.7977 20.875 30.706 20.8725 30.6514 20.8972L29.4148 21.3309C29.6056 21.0937 29.842 20.8989 30.124 20.7465C31.0254 20.2573 31.4019 19.1079 30.9487 18.2378C30.9164 18.1784 30.8545 18.1364 30.7877 18.1291C30.7283 18.1267 30.6287 18.1578 30.5891 18.2022C30.5867 18.2049 30.1795 18.5593 29.3675 19.2655C29.2819 19.0133 29.369 18.7234 29.629 18.3958C30.4164 17.4046 30.3917 16.0774 29.572 15.3731C29.525 15.3335 29.4656 15.3137 29.4037 15.3237C29.3516 15.3311 29.2848 15.3757 29.2576 15.4202C28.3579 17.9246 26.583 20.3166 24.517 20.6133C24.4507 20.6615 24.4077 20.7355 24.3988 20.8157C24.3915 20.9072 24.426 20.9937 24.4955 21.0555C24.7381 21.2705 24.8719 21.5572 24.8719 21.8636C24.8719 22.4073 24.4409 22.877 23.8418 22.9807C23.5767 23.0309 22.9627 22.9635 22.6793 22.8953C22.6053 22.8775 22.5601 22.8665 22.5437 22.8625L22.5369 22.8608C22.532 22.8595 22.5781 22.8703 22.6754 22.8934C22.5412 22.8509 22.2646 22.7327 22.076 22.5015C21.8873 22.2702 21.7841 20.8702 21.996 20.2517L22.0262 20.1682L22.0588 20.0868L22.076 20.0468C22.4573 19.1794 23.3688 18.3759 24.3741 18.5268C24.5737 18.5572 24.6759 18.6503 24.7255 18.7192L24.7417 18.7437C24.7441 18.7476 24.7462 18.7513 24.7482 18.7548L24.7615 18.7819L24.7757 18.8195C24.7966 18.8663 24.837 18.9023 24.8868 18.9174C24.9438 18.9347 25.0057 18.9223 25.0502 18.8852C25.2435 18.727 25.3771 18.2773 25.3201 17.9755C25.2309 17.5073 24.8478 17.2954 24.3201 17.2003L24.2282 17.1851C24.2127 17.1828 24.197 17.1805 24.1813 17.1784L24.0855 17.1663C24.0531 17.1626 24.0204 17.1593 23.9873 17.1562L23.8868 17.1478C23.853 17.1453 23.8188 17.143 23.7843 17.141L23.6798 17.1356L23.5736 17.1315L23.4114 17.1273L23.1905 17.1248L22.9627 17.1246L22.6056 17.1262L22.3418 17.1261L22.167 17.1241C21.6448 17.1151 21.1462 17.077 20.7661 16.9423C20.714 16.9226 20.6572 16.9299 20.61 16.9597C20.563 16.9892 20.5332 17.0388 20.5308 17.0932C20.5011 17.4714 20.8774 17.9633 21.2861 18.24C20.7066 18.8134 20.256 19.676 20.0131 20.6499C19.7705 19.676 19.3196 18.8134 18.7401 18.24C19.1487 17.9631 19.5251 17.4714 19.4955 17.0932C19.4906 17.0388 19.4608 16.9894 19.4162 16.9597C19.3693 16.9301 19.3123 16.9226 19.2602 16.9423C18.8628 17.0832 18.3358 17.117 17.7879 17.1241L17.6046 17.1256L16.9496 17.1255L16.7233 17.1273L16.5565 17.1304L16.3929 17.1357L16.2859 17.1407L16.1808 17.1471L16.0778 17.1551C16.0608 17.1565 16.0439 17.1581 16.0271 17.1597L15.9275 17.1702C15.2881 17.2452 14.8073 17.4446 14.7062 17.9755C14.6492 18.2746 14.783 18.7244 14.976 18.8852C15.023 18.9223 15.0824 18.9345 15.1394 18.9174C15.1964 18.9001 15.2409 18.8556 15.2583 18.7988L15.2589 18.7968L15.2685 18.773L15.2785 18.7535L15.2927 18.7303L15.3116 18.7044C15.3652 18.6371 15.4674 18.554 15.6546 18.5268C16.6648 18.3786 17.5689 19.1794 17.9527 20.0493C18.2375 20.6968 18.7411 21.6975 18.24 22.3091C17.7389 22.9206 17.8268 22.7726 17.3552 22.8995C17.0722 22.9756 17.0322 22.9823 17.2352 22.9195L17.2392 22.9181L17.1735 22.9347C16.7963 23.0237 16.4438 23.0228 16.2064 22.9851L16.1657 22.9781C15.5713 22.8743 15.1381 22.4046 15.1381 21.8609C15.1381 21.5545 15.2719 21.2677 15.5145 21.0528C15.5838 20.991 15.6209 20.9046 15.6136 20.8131C15.6062 20.7215 15.5408 20.686 15.4724 20.5931C13.5661 19.4653 11.232 16.9161 10.7523 15.4151C10.7201 15.3631 10.6682 15.3286 10.6087 15.3186L10.5881 15.3179ZM16.0446 24.4019C16.0527 24.4027 16.0611 24.4036 16.0697 24.4045L16.1244 24.4114C16.134 24.4128 16.1438 24.4142 16.1538 24.4158L16.2162 24.4264C16.5505 24.4888 17.341 24.292 17.6046 24.8514C17.6486 25.0764 17.6377 25.4142 17.5719 25.8648C16.9693 25.8708 16.2412 25.8831 15.9903 26.3445L15.9711 26.3816L15.9521 26.4215L15.9335 26.4643L15.9157 26.51C15.9128 26.5178 15.9099 26.5258 15.9071 26.5339L15.8908 26.5839L15.8758 26.6367C15.7716 27.0345 15.7948 27.6628 16.3817 28.5196C16.1317 28.6233 15.4531 28.7593 15.0321 28.7297C14.787 28.5147 14.4254 28.4258 14.1009 28.5073L13.374 27.8347L12.225 26.7776L12.0133 26.5869C12.0703 26.4114 12.0182 26.2409 11.9414 26.1296C11.9167 26.095 11.8893 26.0654 11.8597 26.0407C11.8944 25.895 11.8844 25.7146 11.8301 25.5488C11.8203 25.5166 11.8054 25.4797 11.7855 25.4402C12.2114 25.8281 12.8826 25.885 13.5661 25.5637C14.0292 25.3462 14.2918 25.374 13.9029 25.676L13.4347 25.9912C13.3802 26.0208 13.343 26.0728 13.3308 26.1345C13.321 26.189 13.3432 26.2681 13.3802 26.3076C13.5759 26.5252 13.8854 26.6487 14.2271 26.6487L14.2867 26.6474C14.6866 26.6306 15.0709 26.4474 15.3438 26.137C15.6483 25.791 15.8961 25.178 16.0446 24.4019ZM20.8128 13.26C20.7607 13.26 20.7137 13.2822 20.679 13.3218L19.9978 14.0981L19.3241 13.322L19.3085 13.3061C19.2759 13.2765 19.235 13.2602 19.1903 13.2602C18.7818 13.2602 18.477 13.3886 18.3112 13.6335C18.1353 13.893 18.1353 14.2465 18.3088 14.684C18.3328 14.7436 18.3718 14.8214 18.4176 14.9057L18.4752 15.0091L18.5362 15.1143L18.5972 15.2168L18.6822 15.3554L18.7496 15.4626C18.6407 15.8876 18.3286 16.1471 17.9993 16.2807C18.1306 15.8952 18.0514 15.6555 17.9572 15.5195C17.831 15.3366 17.6106 15.2377 17.3356 15.2377C17.2935 15.2377 17.2515 15.2526 17.2192 15.2822L16.7982 15.6554L16.3772 15.2822L16.3603 15.2686C16.3309 15.2481 16.2958 15.2377 16.2608 15.2377C15.9811 15.24 15.7607 15.3413 15.6343 15.5217L15.6233 15.5378C15.5295 15.6818 15.4596 15.9352 15.612 16.3374C15.6679 16.4849 15.7794 16.6629 15.9464 16.8713C15.9811 16.9157 16.033 16.9404 16.0875 16.9404H17.5041L17.5719 16.9397C18.5072 16.9393 19.1581 16.4947 19.5249 15.6057H20.4758C20.8867 16.5375 21.5594 16.9824 22.4941 16.9404H23.9107L23.931 16.9391C23.9779 16.9334 24.0214 16.908 24.0518 16.8713C24.2306 16.6658 24.3421 16.487 24.3862 16.3349C24.5079 15.9151 24.463 15.6601 24.3664 15.5193C24.2401 15.3364 24.0197 15.2375 23.7423 15.2375C23.7003 15.2375 23.6582 15.2524 23.6259 15.282L23.2049 15.6552L22.7839 15.282L22.767 15.2684C22.7376 15.2478 22.7026 15.2375 22.6675 15.2375C22.3926 15.2375 22.1697 15.3388 22.0459 15.5193C21.9517 15.6552 21.8725 15.895 22.0038 16.2805C21.6746 16.147 21.3624 15.885 21.2536 15.4624L21.3201 15.3552L21.3752 15.2654L21.466 15.1141C21.4762 15.0967 21.4865 15.0792 21.4968 15.0616L21.5567 14.9567C21.6148 14.853 21.6655 14.7553 21.6944 14.6838C21.8678 14.2463 21.8678 13.8928 21.6919 13.6333C21.526 13.3886 21.2215 13.26 20.8128 13.26ZM16.9181 13.9668C16.8477 13.9028 16.7249 13.9078 16.6625 13.9816L16.2836 14.434L16.2711 14.4512C16.2295 14.5165 16.2338 14.6024 16.2861 14.6613L16.6623 15.1037L16.6779 15.1195C16.7106 15.1491 16.7515 15.1654 16.7961 15.1654C16.8482 15.1654 16.8976 15.1432 16.9299 15.1037L17.3088 14.6613L17.3219 14.6446C17.3654 14.5812 17.3612 14.4951 17.3113 14.434L16.9323 13.9816L16.9181 13.9668ZM23.3051 13.9533C23.2333 13.904 23.1242 13.9134 23.0666 13.9816L22.6877 14.434L22.6752 14.4512C22.6336 14.5165 22.6379 14.6024 22.6902 14.6613L23.0664 15.1037L23.082 15.1195C23.1147 15.1491 23.1556 15.1654 23.2002 15.1654C23.2523 15.1654 23.3017 15.1432 23.334 15.1037L23.7129 14.6613L23.726 14.6446C23.7695 14.5812 23.7654 14.4951 23.7154 14.434L23.3365 13.9816L23.3222 13.9668L23.3051 13.9533ZM20.1201 11.8555C20.0497 11.7895 19.9268 11.7946 19.8645 11.8707L19.3296 12.5084L19.316 12.5265C19.2754 12.589 19.2798 12.6702 19.3271 12.7308L19.8594 13.4007L19.8752 13.4176C19.9084 13.4493 19.9513 13.4674 19.9981 13.4674C20.0526 13.4674 20.1021 13.4427 20.1368 13.4007L20.6717 12.7308L20.6846 12.712C20.7234 12.6477 20.7189 12.5668 20.6693 12.5084L20.1343 11.8707L20.1201 11.8555Z" fill="white"/>
</mask>
<g mask="url(#mask0_15_6001)">
<path d="M21.5565 0.390704C23.01 1.17819 25.7424 2.39949 28.6047 3.61882L28.8866 3.73874C28.9807 3.77869 29.0749 3.81864 29.1691 3.85854L29.5369 4.01399C29.6865 4.07712 29.8362 4.14012 29.9857 4.20293L30.2845 4.32827C32.9709 5.45366 35.5748 6.50287 37.1532 7.11823C37.9896 7.44169 39.7398 8.11907 39.8481 9.98173C40.0958 14.2923 40.3902 25.0072 37.6332 31.5347C33.9469 40.3411 24.05 44.4204 21.1071 45.5293C20.7543 45.654 20.3823 45.7166 20.0074 45.7143C19.6484 45.7135 19.2919 45.651 18.9543 45.5291C16.0423 44.4206 6.06808 40.3412 2.38214 31.5657C-0.374893 25.0228 -0.127175 14.3079 0.182708 9.99713C0.291047 8.13445 2.02558 7.47244 2.86208 7.13363C4.60165 6.4537 7.56883 5.2595 10.5269 4.01584L11.0811 3.78218C14.0948 2.50815 17.0183 1.21284 18.5363 0.390704C19.4749 -0.130234 20.618 -0.130234 21.5565 0.390704ZM20.0706 2.08019L20.0712 2.08018C19.8981 2.0753 19.7271 2.11802 19.5766 2.20347C18.0347 3.05104 15.1428 4.34353 12.1413 5.61963L11.8505 5.74306C11.802 5.76362 11.7535 5.78416 11.705 5.8047L11.3336 5.96154C11.1805 6.02609 11.0274 6.0905 10.8745 6.15469L10.5688 6.28278C7.92285 7.39017 5.35968 8.42236 3.72877 9.06348C2.61556 9.49518 2.3992 9.77268 2.36828 10.0962L2.36131 10.2229L2.34733 10.4871C2.12145 14.875 1.92014 24.7863 4.42463 30.7525C7.79498 38.7531 17.0245 42.5916 19.7772 43.578H19.7777C19.9923 43.6557 20.2274 43.6557 20.4424 43.578C23.1635 42.5913 32.4395 38.7528 35.7167 30.7525C38.2986 24.5862 38.0203 14.2574 37.773 10.0962C37.773 9.77227 37.5257 9.49478 36.4125 9.06348C34.6598 8.34712 31.8121 7.19153 28.9459 5.98481L28.6332 5.85298C28.5811 5.83098 28.529 5.80897 28.4769 5.78695L28.1073 5.63043C25.0918 4.35126 22.1725 3.05737 20.6118 2.20389C20.4477 2.1103 20.2596 2.06717 20.0706 2.08019ZM21.2106 5.35082C22.4025 5.9978 24.7003 7.02057 27.0564 8.0211L27.3574 8.14868L27.5079 8.21232L27.809 8.33919L28.0727 8.44995C30.136 9.31515 32.1282 10.1192 33.3414 10.593C33.9919 10.8451 35.3532 11.3729 35.4374 12.8243C35.6301 16.1832 35.859 24.5324 33.7147 29.6189C30.8476 36.481 23.15 39.6596 20.8611 40.5237C20.5867 40.6209 20.2973 40.6696 20.0057 40.6678C19.7265 40.6673 19.4492 40.6185 19.1866 40.5235C16.9218 39.6598 9.16407 36.481 6.29722 29.643C4.15286 24.5446 4.34553 16.1954 4.58655 12.8363C4.67081 11.3849 6.01989 10.869 6.67051 10.605C7.99222 10.0875 10.2251 9.18751 12.4724 8.24276L12.7421 8.1292L13.1462 7.95833L13.4475 7.83029C15.6529 6.8913 17.7456 5.95635 18.8615 5.35082C19.5916 4.94489 20.4806 4.94489 21.2106 5.35082ZM10.5881 15.3179L10.5656 15.3194C10.5194 15.3244 10.4669 15.3415 10.4353 15.3655C9.82948 15.8242 9.73848 17.3283 10.3808 18.3882C10.4326 18.4738 10.5025 18.5921 10.569 18.7149L10.5954 18.7642C10.7823 19.1182 10.9179 19.4784 10.4967 19.1785L9.37273 18.1889C9.32721 18.1478 9.26744 18.1276 9.20588 18.1386C9.1489 18.146 9.07045 18.1966 9.04738 18.2499C8.81726 18.7819 8.97303 20.2668 9.87201 20.7561C9.97447 20.8121 10.0888 20.8805 10.2026 20.9519L10.2783 20.9999C10.6046 21.2086 10.9032 21.4243 10.8739 21.4184L9.34701 20.9068C9.28512 20.8772 9.21076 20.8772 9.15132 20.9117C9.10189 20.9388 9.05226 21.0105 9.0449 21.0674C8.92847 22.0115 9.53268 22.7554 10.5481 22.9187C10.8031 22.9607 11.1612 23.0221 11.6224 23.1028C11.6095 23.1044 11.1305 23.1217 10.1855 23.1546C10.1366 23.1549 10.0846 23.1784 10.0478 23.2152C10.0131 23.2498 9.98344 23.3189 9.98589 23.3685C9.99325 23.7195 10.1295 24.0186 10.3746 24.2262C10.7139 24.5152 11.2513 24.6339 11.853 24.5548C12.4722 24.4732 12.7148 24.6117 12.1451 24.7644L11.6896 24.8514C11.6177 24.8588 11.5558 24.9008 11.5213 24.9627C11.4966 25.0096 11.4966 25.0838 11.5164 25.1383C11.3951 25.037 11.2317 24.9505 11.0064 24.901C10.9494 24.8885 10.8899 24.9059 10.8479 24.9454C10.8058 24.985 10.786 25.0443 10.7933 25.1012C10.7948 25.1091 10.7962 25.1176 10.7975 25.1266L10.8046 25.1858L10.8107 25.252C10.5656 25.1754 10.1644 25.0198 9.91172 25.252C9.69868 25.4967 9.81756 25.9415 9.91172 26.1739C9.84983 26.1739 9.79284 26.1715 9.74831 26.1666C9.69357 26.159 9.63167 26.1837 9.59695 26.2308C9.55978 26.2752 9.54752 26.337 9.56468 26.3914C9.67621 26.7623 9.92623 27.0191 10.2679 27.1131C10.4536 27.1651 10.6518 27.1625 10.8078 27.1156C10.8301 27.1378 10.8572 27.1576 10.8846 27.1749C11.0159 27.2564 11.2437 27.3109 11.4418 27.1996L13.4278 29.0409C13.3559 29.1991 13.3337 29.3721 13.3635 29.545C13.4278 29.9132 13.7324 30.2123 14.1238 30.2889C14.3344 30.3309 14.5448 30.3087 14.7355 30.2296L15.2208 30.6696L15.2484 30.6921C15.3332 30.7561 15.4382 30.7875 15.5452 30.7809C15.6616 30.7735 15.773 30.7191 15.8473 30.6327C15.9192 30.5511 15.9513 30.4473 15.9439 30.3436C15.9366 30.2447 15.8894 30.1532 15.8226 30.0965L15.8152 30.0892L15.4041 29.7134C15.8696 29.4737 16.578 29.3081 17.192 29.3081C17.3108 29.3081 17.4148 29.2562 17.4743 29.1648C17.5337 29.0759 17.5435 28.9573 17.499 28.8533C17.3801 28.574 17.3258 28.1712 17.5041 28.0203C17.6949 27.8572 18.076 28.0103 18.3608 28.1883L18.405 28.2175C18.6088 28.3586 18.8781 28.6333 19.1086 29.1695C18.7603 29.2646 18.3992 29.3947 18.0529 29.552L17.9238 29.6123C17.09 30.0121 16.3652 30.5679 16.1517 31.1666C16.0922 31.3346 16.1169 31.5274 16.2236 31.7128C16.3821 31.9896 16.6991 32.212 17.0259 32.2738C17.0805 32.2862 17.1399 32.2738 17.1869 32.2416C17.2265 32.2145 17.2661 32.1552 17.2759 32.1081C17.4073 31.4284 17.7118 31.3566 17.5905 31.8708C17.4618 32.4145 18.0337 32.8742 18.5019 32.9953C18.5638 33.0126 18.6282 32.9977 18.6802 32.9606C18.7223 32.9284 18.7619 32.8593 18.7644 32.8073C18.8138 32.0239 19.0367 32.2384 19.0367 32.7307C19.0367 33.1497 19.4487 33.4477 19.7296 33.6024L19.7876 33.6334C19.7969 33.6381 19.8059 33.6427 19.8147 33.6472L19.8645 33.6714L19.9257 33.6994C19.9479 33.7092 19.9726 33.7143 19.9976 33.7143C20.0174 33.7143 20.0372 33.7118 20.057 33.7045L20.1114 33.6825L20.1702 33.656L20.2185 33.6326L20.2726 33.6049C20.282 33.5999 20.2917 33.5947 20.3015 33.5893L20.3621 33.555C20.632 33.3967 20.9831 33.1162 20.9831 32.7306C20.9831 32.2645 21.2035 32.0236 21.2554 32.8049C21.2579 32.8666 21.2902 32.9235 21.342 32.9606C21.3841 32.9902 21.4658 33.0051 21.5179 32.9928C21.9834 32.8717 22.558 32.412 22.4267 31.8683C22.3029 31.3541 22.6074 31.4259 22.7388 32.1056C22.7486 32.16 22.7808 32.2069 22.8254 32.2391C22.865 32.2662 22.9369 32.2811 22.9839 32.2713C23.3158 32.2071 23.6301 31.9872 23.7911 31.7078C23.8976 31.5225 23.9225 31.3297 23.863 31.1617C23.6002 30.4248 22.563 29.7529 21.5011 29.3569L21.3683 29.3088C21.2133 29.2545 21.0585 29.2062 20.9061 29.1646C21.1537 28.5862 21.446 28.3118 21.6539 28.1834C21.9362 28.0078 22.415 27.8597 22.6056 28.0203C22.7839 28.1712 22.6346 28.5664 22.5133 28.8484C22.4688 28.9546 22.4786 29.0708 22.538 29.1599C22.5974 29.2514 22.7014 29.3032 22.8203 29.3032C23.6102 29.3032 24.5686 29.5874 24.9326 29.926C25.2421 30.3684 25.7819 30.6057 26.3541 30.5537C27.0476 30.4871 27.6097 29.9754 27.6889 29.3401C27.7557 28.8038 27.4908 28.2947 26.9954 28.0079C26.9335 27.9732 26.915 27.9351 26.7998 28.0203C26.6845 28.1055 26.583 28.7815 26.2272 28.7815C25.9899 28.7815 25.778 28.5278 25.5913 28.0203L25.5715 28.007C25.5169 27.9753 25.4485 27.9751 25.3956 28.0079C25.1033 28.1785 24.888 28.4305 24.7789 28.7295L24.707 28.7288C24.3683 28.719 23.8602 28.6092 23.6498 28.522C24.2118 27.7024 24.2589 27.0923 24.1714 26.6924L24.1581 26.6367L24.1508 26.6099L24.1351 26.5585C24.1324 26.5502 24.1296 26.542 24.1268 26.5339L24.1095 26.4868L24.0912 26.4426C24.0881 26.4354 24.085 26.4284 24.0819 26.4215L24.0629 26.3816L24.0436 26.3445C23.8169 25.9274 23.357 25.8671 22.8228 25.8638L22.715 25.8638C22.6788 25.864 22.6423 25.8643 22.6056 25.8648C22.3872 24.8992 22.7496 24.4273 23.6928 24.4491L23.7613 24.4338C23.7724 24.4315 23.7834 24.4294 23.7942 24.4273L23.8566 24.4164L23.9141 24.4081L23.9658 24.4019C24.1143 25.178 24.3621 25.791 24.6691 26.137C24.9538 26.4583 25.3601 26.6461 25.7784 26.6487L25.8392 26.6478C26.1606 26.6361 26.4494 26.5143 26.6351 26.3076C26.6772 26.2607 26.6945 26.199 26.6845 26.137C26.6772 26.085 26.63 26.0184 26.583 25.9912L25.9187 25.5148C25.5717 25.2093 25.9961 25.3486 26.4516 25.5637C27.2811 25.9543 28.0911 25.7861 28.4675 25.1533C28.5047 25.094 28.5071 25.0198 28.4749 24.9556C28.4477 24.9011 28.366 24.8469 28.3039 24.8418C28.2981 24.8413 28.1307 24.8076 27.8019 24.7405C27.2349 24.5808 27.5238 24.4636 28.143 24.5452C28.7447 24.6243 29.2846 24.5056 29.6214 24.2165C29.8665 24.0063 30.0027 23.7099 30.0101 23.3564C30.0101 23.2996 29.9878 23.2451 29.9482 23.2056C29.9135 23.1709 29.8442 23.1389 29.7897 23.1463L28.3165 23.0839C28.4936 23.0576 28.6552 23.0333 28.8015 23.0111L28.9426 22.9895C29.1465 22.9582 29.3158 22.9314 29.4504 22.9092C30.4509 22.7485 31.07 21.9873 30.9535 21.0603C30.9486 21.0034 30.899 20.9292 30.8471 20.9021C30.7977 20.875 30.706 20.8725 30.6514 20.8972L29.4148 21.3309C29.6056 21.0937 29.842 20.8989 30.124 20.7465C31.0254 20.2573 31.4019 19.1079 30.9487 18.2378C30.9164 18.1784 30.8545 18.1364 30.7877 18.1291C30.7283 18.1267 30.6287 18.1578 30.5891 18.2022C30.5867 18.2049 30.1795 18.5593 29.3675 19.2655C29.2819 19.0133 29.369 18.7234 29.629 18.3958C30.4164 17.4046 30.3917 16.0774 29.572 15.3731C29.525 15.3335 29.4656 15.3137 29.4037 15.3237C29.3516 15.3311 29.2848 15.3757 29.2576 15.4202C28.3579 17.9246 26.583 20.3166 24.517 20.6133C24.4507 20.6615 24.4077 20.7355 24.3988 20.8157C24.3915 20.9072 24.426 20.9937 24.4955 21.0555C24.7381 21.2705 24.8719 21.5572 24.8719 21.8636C24.8719 22.4073 24.4409 22.877 23.8418 22.9807C23.5767 23.0309 22.9627 22.9635 22.6793 22.8953C22.6053 22.8775 22.5601 22.8665 22.5437 22.8625L22.5369 22.8608C22.532 22.8595 22.5781 22.8703 22.6754 22.8934C22.5412 22.8509 22.2646 22.7327 22.076 22.5015C21.8873 22.2702 21.7841 20.8702 21.996 20.2517L22.0262 20.1682L22.0588 20.0868L22.076 20.0468C22.4573 19.1794 23.3688 18.3759 24.3741 18.5268C24.5737 18.5572 24.6759 18.6503 24.7255 18.7192L24.7417 18.7437C24.7441 18.7476 24.7462 18.7513 24.7482 18.7548L24.7615 18.7819L24.7757 18.8195C24.7966 18.8663 24.837 18.9023 24.8868 18.9174C24.9438 18.9347 25.0057 18.9223 25.0502 18.8852C25.2435 18.727 25.3771 18.2773 25.3201 17.9755C25.2309 17.5073 24.8478 17.2954 24.3201 17.2003L24.2282 17.1851C24.2127 17.1828 24.197 17.1805 24.1813 17.1784L24.0855 17.1663C24.0531 17.1626 24.0204 17.1593 23.9873 17.1562L23.8868 17.1478C23.853 17.1453 23.8188 17.143 23.7843 17.141L23.6798 17.1356L23.5736 17.1315L23.4114 17.1273L23.1905 17.1248L22.9627 17.1246L22.6056 17.1262L22.3418 17.1261L22.167 17.1241C21.6448 17.1151 21.1462 17.077 20.7661 16.9423C20.714 16.9226 20.6572 16.9299 20.61 16.9597C20.563 16.9892 20.5332 17.0388 20.5308 17.0932C20.5011 17.4714 20.8774 17.9633 21.2861 18.24C20.7066 18.8134 20.256 19.676 20.0131 20.6499C19.7705 19.676 19.3196 18.8134 18.7401 18.24C19.1487 17.9631 19.5251 17.4714 19.4955 17.0932C19.4906 17.0388 19.4608 16.9894 19.4162 16.9597C19.3693 16.9301 19.3123 16.9226 19.2602 16.9423C18.8628 17.0832 18.3358 17.117 17.7879 17.1241L17.6046 17.1256L16.9496 17.1255L16.7233 17.1273L16.5565 17.1304L16.3929 17.1357L16.2859 17.1407L16.1808 17.1471L16.0778 17.1551C16.0608 17.1565 16.0439 17.1581 16.0271 17.1597L15.9275 17.1702C15.2881 17.2452 14.8073 17.4446 14.7062 17.9755C14.6492 18.2746 14.783 18.7244 14.976 18.8852C15.023 18.9223 15.0824 18.9345 15.1394 18.9174C15.1964 18.9001 15.2409 18.8556 15.2583 18.7988L15.2589 18.7968L15.2685 18.773L15.2785 18.7535L15.2927 18.7303L15.3116 18.7044C15.3652 18.6371 15.4674 18.554 15.6546 18.5268C16.6648 18.3786 17.5689 19.1794 17.9527 20.0493C18.2375 20.6968 18.7411 21.6975 18.24 22.3091C17.7389 22.9206 17.8268 22.7726 17.3552 22.8995C17.0722 22.9756 17.0322 22.9823 17.2352 22.9195L17.2392 22.9181L17.1735 22.9347C16.7963 23.0237 16.4438 23.0228 16.2064 22.9851L16.1657 22.9781C15.5713 22.8743 15.1381 22.4046 15.1381 21.8609C15.1381 21.5545 15.2719 21.2677 15.5145 21.0528C15.5838 20.991 15.6209 20.9046 15.6136 20.8131C15.6062 20.7215 15.5408 20.686 15.4724 20.5931C13.5661 19.4653 11.232 16.9161 10.7523 15.4151C10.7201 15.3631 10.6682 15.3286 10.6087 15.3186L10.5881 15.3179ZM16.0446 24.4019C16.0527 24.4027 16.0611 24.4036 16.0697 24.4045L16.1244 24.4114C16.134 24.4128 16.1438 24.4142 16.1538 24.4158L16.2162 24.4264C16.5505 24.4888 17.341 24.292 17.6046 24.8514C17.6486 25.0764 17.6377 25.4142 17.5719 25.8648C16.9693 25.8708 16.2412 25.8831 15.9903 26.3445L15.9711 26.3816L15.9521 26.4215L15.9335 26.4643L15.9157 26.51C15.9128 26.5178 15.9099 26.5258 15.9071 26.5339L15.8908 26.5839L15.8758 26.6367C15.7716 27.0345 15.7948 27.6628 16.3817 28.5196C16.1317 28.6233 15.4531 28.7593 15.0321 28.7297C14.787 28.5147 14.4254 28.4258 14.1009 28.5073L13.374 27.8347L12.225 26.7776L12.0133 26.5869C12.0703 26.4114 12.0182 26.2409 11.9414 26.1296C11.9167 26.095 11.8893 26.0654 11.8597 26.0407C11.8944 25.895 11.8844 25.7146 11.8301 25.5488C11.8203 25.5166 11.8054 25.4797 11.7855 25.4402C12.2114 25.8281 12.8826 25.885 13.5661 25.5637C14.0292 25.3462 14.2918 25.374 13.9029 25.676L13.4347 25.9912C13.3802 26.0208 13.343 26.0728 13.3308 26.1345C13.321 26.189 13.3432 26.2681 13.3802 26.3076C13.5759 26.5252 13.8854 26.6487 14.2271 26.6487L14.2867 26.6474C14.6866 26.6306 15.0709 26.4474 15.3438 26.137C15.6483 25.791 15.8961 25.178 16.0446 24.4019ZM20.8128 13.26C20.7607 13.26 20.7137 13.2822 20.679 13.3218L19.9978 14.0981L19.3241 13.322L19.3085 13.3061C19.2759 13.2765 19.235 13.2602 19.1903 13.2602C18.7818 13.2602 18.477 13.3886 18.3112 13.6335C18.1353 13.893 18.1353 14.2465 18.3088 14.684C18.3328 14.7436 18.3718 14.8214 18.4176 14.9057L18.4752 15.0091L18.5362 15.1143L18.5972 15.2168L18.6822 15.3554L18.7496 15.4626C18.6407 15.8876 18.3286 16.1471 17.9993 16.2807C18.1306 15.8952 18.0514 15.6555 17.9572 15.5195C17.831 15.3366 17.6106 15.2377 17.3356 15.2377C17.2935 15.2377 17.2515 15.2526 17.2192 15.2822L16.7982 15.6554L16.3772 15.2822L16.3603 15.2686C16.3309 15.2481 16.2958 15.2377 16.2608 15.2377C15.9811 15.24 15.7607 15.3413 15.6343 15.5217L15.6233 15.5378C15.5295 15.6818 15.4596 15.9352 15.612 16.3374C15.6679 16.4849 15.7794 16.6629 15.9464 16.8713C15.9811 16.9157 16.033 16.9404 16.0875 16.9404H17.5041L17.5719 16.9397C18.5072 16.9393 19.1581 16.4947 19.5249 15.6057H20.4758C20.8867 16.5375 21.5594 16.9824 22.4941 16.9404H23.9107L23.931 16.9391C23.9779 16.9334 24.0214 16.908 24.0518 16.8713C24.2306 16.6658 24.3421 16.487 24.3862 16.3349C24.5079 15.9151 24.463 15.6601 24.3664 15.5193C24.2401 15.3364 24.0197 15.2375 23.7423 15.2375C23.7003 15.2375 23.6582 15.2524 23.6259 15.282L23.2049 15.6552L22.7839 15.282L22.767 15.2684C22.7376 15.2478 22.7026 15.2375 22.6675 15.2375C22.3926 15.2375 22.1697 15.3388 22.0459 15.5193C21.9517 15.6552 21.8725 15.895 22.0038 16.2805C21.6746 16.147 21.3624 15.885 21.2536 15.4624L21.3201 15.3552L21.3752 15.2654L21.466 15.1141C21.4762 15.0967 21.4865 15.0792 21.4968 15.0616L21.5567 14.9567C21.6148 14.853 21.6655 14.7553 21.6944 14.6838C21.8678 14.2463 21.8678 13.8928 21.6919 13.6333C21.526 13.3886 21.2215 13.26 20.8128 13.26ZM16.9181 13.9668C16.8477 13.9028 16.7249 13.9078 16.6625 13.9816L16.2836 14.434L16.2711 14.4512C16.2295 14.5165 16.2338 14.6024 16.2861 14.6613L16.6623 15.1037L16.6779 15.1195C16.7106 15.1491 16.7515 15.1654 16.7961 15.1654C16.8482 15.1654 16.8976 15.1432 16.9299 15.1037L17.3088 14.6613L17.3219 14.6446C17.3654 14.5812 17.3612 14.4951 17.3113 14.434L16.9323 13.9816L16.9181 13.9668ZM23.3051 13.9533C23.2333 13.904 23.1242 13.9134 23.0666 13.9816L22.6877 14.434L22.6752 14.4512C22.6336 14.5165 22.6379 14.6024 22.6902 14.6613L23.0664 15.1037L23.082 15.1195C23.1147 15.1491 23.1556 15.1654 23.2002 15.1654C23.2523 15.1654 23.3017 15.1432 23.334 15.1037L23.7129 14.6613L23.726 14.6446C23.7695 14.5812 23.7654 14.4951 23.7154 14.434L23.3365 13.9816L23.3222 13.9668L23.3051 13.9533ZM20.1201 11.8555C20.0497 11.7895 19.9268 11.7946 19.8645 11.8707L19.3296 12.5084L19.316 12.5265C19.2754 12.589 19.2798 12.6702 19.3271 12.7308L19.8594 13.4007L19.8752 13.4176C19.9084 13.4493 19.9513 13.4674 19.9981 13.4674C20.0526 13.4674 20.1021 13.4427 20.1368 13.4007L20.6717 12.7308L20.6846 12.712C20.7234 12.6477 20.7189 12.5668 20.6693 12.5084L20.1343 11.8707L20.1201 11.8555Z" fill="#303236"/>
<path d="M40.9524 -1.52393H20V47.238H40.9524V-1.52393Z" fill="#FFF9E1" fill-opacity="0.41"/>
</g>
</svg>
