<svg width="22" height="22" viewBox="0 0 22 22" fill="none" xmlns="http://www.w3.org/2000/svg">
<path d="M12.0078 0.992188C12.5234 0.992188 13 1.11719 13.4375 1.36719C13.8906 1.61719 14.2578 1.96094 14.5391 2.39844C14.8203 2.83594 14.9688 3.3125 14.9844 3.82812L15.0078 6.00781C15.0078 6.52344 14.8828 7.00781 14.6328 7.46094C14.3828 7.89844 14.0391 8.25781 13.6016 8.53906C13.1641 8.82031 12.6875 8.96875 12.1719 8.98438L12.0078 9.00781V9.99219H15.0078C15.5234 9.99219 16 10.1172 16.4375 10.3672C16.8906 10.6172 17.2578 10.9609 17.5391 11.3984C17.8203 11.8359 17.9688 12.3125 17.9844 12.8281L18.0078 12.9922C18.5234 12.9922 19 13.1172 19.4375 13.3672C19.8906 13.6172 20.2578 13.9609 20.5391 14.3984C20.8203 14.8359 20.9688 15.3125 20.9844 15.8281L21.0078 18.0078C21.0078 18.5234 20.8828 19.0078 20.6328 19.4609C20.3828 19.8984 20.0391 20.2578 19.6016 20.5391C19.1641 20.8203 18.6875 20.9688 18.1719 20.9844L15.9922 21.0078C15.4766 21.0078 14.9922 20.8828 14.5391 20.6328C14.1016 20.3828 13.7422 20.0391 13.4609 19.6016C13.1797 19.1641 13.0312 18.6875 13.0156 18.1719L12.9922 15.9922C12.9922 15.4766 13.1172 15 13.3672 14.5625C13.6172 14.1094 13.9609 13.7422 14.3984 13.4609C14.8359 13.1797 15.3125 13.0312 15.8281 13.0156L15.9922 12.9922C15.9922 12.7422 15.9062 12.5234 15.7344 12.3359C15.5781 12.1484 15.375 12.0391 15.125 12.0078H6.99219C6.74219 12.0078 6.52344 12.0938 6.33594 12.2656C6.14844 12.4219 6.03906 12.625 6.00781 12.875V12.9922C6.52344 12.9922 7 13.1172 7.4375 13.3672C7.89062 13.6172 8.25781 13.9609 8.53906 14.3984C8.82031 14.8359 8.96875 15.3125 8.98438 15.8281L9.00781 18.0078C9.00781 18.5234 8.88281 19.0078 8.63281 19.4609C8.38281 19.8984 8.03906 20.2578 7.60156 20.5391C7.16406 20.8203 6.6875 20.9688 6.17188 20.9844L3.99219 21.0078C3.47656 21.0078 2.99219 20.8828 2.53906 20.6328C2.10156 20.3828 1.74219 20.0391 1.46094 19.6016C1.17969 19.1641 1.03125 18.6875 1.01562 18.1719L0.992188 15.9922C0.992188 15.4766 1.11719 15 1.36719 14.5625C1.61719 14.1094 1.96094 13.7422 2.39844 13.4609C2.83594 13.1797 3.3125 13.0312 3.82812 13.0156L3.99219 12.9922C3.99219 12.4766 4.11719 12 4.36719 11.5625C4.61719 11.1094 4.96094 10.7422 5.39844 10.4609C5.83594 10.1797 6.3125 10.0312 6.82812 10.0156L9.99219 9.99219V9.00781C9.47656 9.00781 8.99219 8.88281 8.53906 8.63281C8.10156 8.38281 7.74219 8.03906 7.46094 7.60156C7.17969 7.16406 7.03125 6.6875 7.01562 6.17188L6.99219 3.99219C6.99219 3.47656 7.11719 3 7.36719 2.5625C7.61719 2.10938 7.96094 1.74219 8.39844 1.46094C8.83594 1.17969 9.3125 1.03125 9.82812 1.01562L12.0078 0.992188ZM6.00781 15.0078H3.99219C3.74219 15.0078 3.52344 15.0938 3.33594 15.2656C3.14844 15.4219 3.03906 15.625 3.00781 15.875V18.0078C3.00781 18.2578 3.08594 18.4766 3.24219 18.6641C3.41406 18.8516 3.625 18.9609 3.875 18.9922H6.00781C6.25781 18.9922 6.47656 18.9141 6.66406 18.7578C6.85156 18.5859 6.96094 18.375 6.99219 18.125V15.9922C6.99219 15.7266 6.89062 15.5 6.6875 15.3125C6.5 15.1094 6.27344 15.0078 6.00781 15.0078ZM18.0078 15.0078H15.9922C15.7422 15.0078 15.5234 15.0938 15.3359 15.2656C15.1484 15.4219 15.0391 15.625 15.0078 15.875V18.0078C15.0078 18.2578 15.0859 18.4766 15.2422 18.6641C15.4141 18.8516 15.625 18.9609 15.875 18.9922H18.0078C18.2578 18.9922 18.4766 18.9141 18.6641 18.7578C18.8516 18.5859 18.9609 18.375 18.9922 18.125V15.9922C18.9922 15.7422 18.9062 15.5234 18.7344 15.3359C18.5781 15.1484 18.375 15.0391 18.125 15.0078H18.0078ZM12.0078 3.00781H9.99219C9.74219 3.00781 9.52344 3.09375 9.33594 3.26562C9.14844 3.42188 9.03906 3.625 9.00781 3.875V6.00781C9.00781 6.25781 9.08594 6.47656 9.24219 6.66406C9.41406 6.85156 9.625 6.96094 9.875 6.99219H12.0078C12.2578 6.99219 12.4766 6.91406 12.6641 6.75781C12.8516 6.58594 12.9609 6.375 12.9922 6.125V3.99219C12.9922 3.72656 12.8906 3.5 12.6875 3.3125C12.5 3.10938 12.2734 3.00781 12.0078 3.00781Z" fill="#18191B"/>
</svg>
