<svg width="40" height="42" viewBox="0 0 40 42" fill="none" xmlns="http://www.w3.org/2000/svg">
<path d="M20.4318 34.6183C12.2078 34.8486 5.35182 28.4331 5.11982 20.2708C4.88782 12.1165 11.3518 5.31984 19.5758 5.08164C27.7918 4.85139 34.6478 11.2748 34.8798 19.4292C35.1198 27.5835 28.6478 34.3881 20.4318 34.6183ZM39.9918 19.2783C39.6718 8.32115 30.4638 -0.309595 19.4238 0.00800337C8.38382 0.325602 -0.312177 9.45657 0.00782343 20.4217C0.327823 31.3788 9.52783 40.0096 20.5758 39.692C31.6158 39.3744 40.3038 30.2355 39.9918 19.2783Z" fill="#0066B3"/>
<path d="M19.9921 34.2694C12.0801 34.2694 5.70407 28.1159 5.48007 20.2633C5.24807 12.3154 11.5761 5.6696 19.5841 5.43934C19.7281 5.4314 19.8721 5.4314 20.0081 5.4314C27.9201 5.4314 34.2961 11.5849 34.5201 19.4296C34.6321 23.2804 33.2241 26.9408 30.5601 29.7356C27.8961 32.5385 24.2961 34.1423 20.4161 34.2455C20.2801 34.2694 20.1361 34.2694 19.9921 34.2694ZM19.9921 34.6267C20.1361 34.6267 20.2801 34.6267 20.4321 34.6187C28.6481 34.3885 35.1201 27.5839 34.8801 19.4296C34.6481 11.4181 28.0321 5.0741 20.0081 5.08204C19.8641 5.08204 19.7201 5.08204 19.5761 5.08998C11.3521 5.32024 4.88807 12.1169 5.12007 20.2712C5.35207 28.2826 11.9681 34.6267 19.9921 34.6267Z" fill="white"/>
<path d="M20.0079 5.79663C19.8719 5.79663 19.7359 5.79663 19.5999 5.80457C11.7919 6.02689 5.62394 12.5138 5.84794 20.2553C6.07194 27.9094 12.2879 33.9121 19.9999 33.9121C20.1359 33.9121 20.2719 33.9121 20.4159 33.9041C24.1999 33.793 27.7119 32.2367 30.3039 29.5054C32.9039 26.774 34.2719 23.209 34.1599 19.4534C33.9359 11.7913 27.7199 5.79663 20.0079 5.79663ZM19.9919 34.9839C16.0079 34.9839 12.2399 33.4674 9.38394 30.7122C6.51194 27.9491 4.87194 24.2491 4.75994 20.2871C4.63994 16.2456 6.11994 12.4027 8.91194 9.4649C11.7039 6.52711 15.4879 4.84384 19.5599 4.72474C19.7119 4.7168 19.8559 4.7168 19.9999 4.7168C23.9839 4.7168 27.7519 6.23333 30.6079 8.9885C33.4719 11.7516 35.1199 15.4516 35.2319 19.4137C35.3519 23.4551 33.872 27.2981 31.0799 30.2358C28.2799 33.1736 24.5039 34.8569 20.4319 34.976C20.2879 34.9839 20.1439 34.9839 19.9919 34.9839Z" fill="#0066B3"/>
<path d="M34.1199 31.1171L33.4879 30.1484L33.0319 30.7201L34.1199 31.1171ZM31.8879 30.863C31.8399 30.8472 31.7999 30.8313 31.7839 30.8154C31.7599 30.7995 31.7439 30.7836 31.7439 30.7598C31.7439 30.7439 31.7519 30.7122 31.7679 30.6804C31.7919 30.6487 31.8159 30.609 31.8639 30.5534C31.9039 30.4978 31.9439 30.4581 31.9679 30.4343C31.9919 30.4025 32.0159 30.3866 32.0319 30.3708C32.0479 30.3549 32.0639 30.3549 32.0799 30.3549C32.0959 30.3549 32.1119 30.3628 32.1279 30.3628L32.6479 30.5454L33.2559 29.7832L32.9599 29.3465C32.9519 29.3306 32.9439 29.3147 32.9359 29.2989C32.9359 29.283 32.9359 29.2671 32.9359 29.2433C32.9439 29.2274 32.9519 29.1956 32.9759 29.1718C32.9919 29.1401 33.0239 29.1083 33.0559 29.0607C33.0959 29.013 33.1279 28.9733 33.1519 28.9495C33.1759 28.9257 33.1999 28.9098 33.2239 28.9098C33.2479 28.9098 33.2639 28.9177 33.2879 28.9416C33.3039 28.9654 33.3279 28.9892 33.3519 29.0368L34.6559 31.0854C34.6719 31.1092 34.6799 31.1251 34.6799 31.1409C34.6799 31.1568 34.6799 31.1806 34.6719 31.2045C34.6639 31.2283 34.6479 31.2521 34.6239 31.2918C34.5999 31.3236 34.5679 31.3712 34.5199 31.4188C34.4719 31.4824 34.4319 31.53 34.3999 31.5618C34.3679 31.5935 34.3359 31.6253 34.3199 31.6412C34.2959 31.657 34.2719 31.665 34.2559 31.665C34.2399 31.665 34.2159 31.665 34.1919 31.6491L31.8879 30.863ZM34.3039 28.5446C34.3519 28.5684 34.3999 28.5922 34.4559 28.6002C34.5039 28.6081 34.5519 28.6002 34.5999 28.5843C34.6479 28.5684 34.6879 28.5446 34.7359 28.4969C34.7839 28.4572 34.8239 28.3937 34.8719 28.3143L35.0399 28.0205L34.3839 27.6553L34.2159 27.957C34.1759 28.0285 34.1439 28.0999 34.1279 28.1555C34.1199 28.2111 34.1119 28.2667 34.1199 28.3143C34.1279 28.362 34.1519 28.4096 34.1759 28.4493C34.2159 28.4811 34.2559 28.5128 34.3039 28.5446ZM34.0719 29.0289C33.9679 28.9733 33.8879 28.9019 33.8159 28.8145C33.7519 28.7351 33.7039 28.6399 33.6799 28.5366C33.6559 28.4334 33.6559 28.3143 33.6879 28.1873C33.7119 28.0602 33.7759 27.9094 33.8719 27.7347L34.2079 27.1471C34.2319 27.0995 34.2639 27.0757 34.3039 27.0598C34.3439 27.0439 34.3839 27.0519 34.4399 27.0836L36.4079 28.1793C36.4559 28.2111 36.4879 28.2429 36.4959 28.2826C36.5039 28.3223 36.4959 28.362 36.4719 28.4017L35.7519 29.672C35.7439 29.68 35.7359 29.6879 35.7279 29.6959C35.7199 29.6959 35.7039 29.7038 35.6879 29.7038C35.6719 29.7038 35.6479 29.6959 35.6239 29.6879C35.5999 29.68 35.5679 29.6641 35.5359 29.6403C35.5039 29.6244 35.4719 29.6085 35.4559 29.5926C35.4319 29.5768 35.4239 29.5609 35.4079 29.545C35.3999 29.5291 35.3919 29.5132 35.3919 29.5053C35.3919 29.4894 35.3919 29.4815 35.3999 29.4656L35.9439 28.5128L35.3839 28.1952L35.1759 28.5684C35.0959 28.7113 35.0159 28.8225 34.9279 28.9019C34.8479 28.9813 34.7599 29.0368 34.6639 29.0686C34.5679 29.1004 34.4799 29.1162 34.3759 29.1083C34.2719 29.1162 34.1759 29.0845 34.0719 29.0289ZM34.6639 26.5278C34.6479 26.5199 34.6399 26.5119 34.6319 26.504C34.6239 26.4961 34.6239 26.4802 34.6239 26.4564C34.6239 26.4325 34.6239 26.4087 34.6319 26.369C34.6399 26.3373 34.6559 26.2896 34.6719 26.242C34.6879 26.1864 34.7039 26.1467 34.7199 26.1149C34.7359 26.0832 34.7519 26.0594 34.7599 26.0435C34.7759 26.0276 34.7839 26.0117 34.7999 26.0117C34.8159 26.0038 34.8319 26.0038 34.8559 26.0038L35.4719 26.0117C35.5599 26.0117 35.6319 26.0117 35.6959 25.9958C35.7599 25.9879 35.8159 25.9641 35.8559 25.9403C35.8959 25.9164 35.9359 25.8847 35.9679 25.845C35.9919 25.8053 36.0239 25.7576 36.0399 25.6941L36.0719 25.5988L35.0799 25.2733C35.0639 25.2654 35.0559 25.2574 35.0479 25.2495C35.0399 25.2415 35.0319 25.2257 35.0319 25.2018C35.0319 25.186 35.0319 25.1542 35.0399 25.1224C35.0479 25.0907 35.0559 25.051 35.0719 25.0033C35.0879 24.9557 35.1039 24.916 35.1199 24.8842C35.1359 24.8525 35.1439 24.8287 35.1599 24.8128C35.1759 24.7969 35.1839 24.789 35.1999 24.781C35.2079 24.781 35.2239 24.781 35.2399 24.781L36.2239 25.1066L36.2559 25.0113C36.2719 24.9478 36.2879 24.8922 36.2879 24.8445C36.2879 24.789 36.2799 24.7413 36.2559 24.6937C36.2319 24.646 36.1999 24.5984 36.1599 24.5587C36.1199 24.5111 36.0639 24.4714 35.9999 24.4237L35.4959 24.0664C35.4799 24.0506 35.4639 24.0426 35.4559 24.0267C35.4479 24.0108 35.4399 23.995 35.4399 23.9711C35.4399 23.9473 35.4479 23.9156 35.4479 23.8838C35.4559 23.852 35.4719 23.8044 35.4879 23.7488C35.5039 23.6933 35.5199 23.6536 35.5359 23.6218C35.5519 23.59 35.5599 23.5662 35.5759 23.5503C35.5919 23.5345 35.5999 23.5186 35.6159 23.5186C35.6239 23.5186 35.6399 23.5186 35.6559 23.5186C35.6639 23.5186 35.6719 23.5265 35.6799 23.5265C35.6879 23.5265 35.6959 23.5345 35.7039 23.5424C35.7119 23.5503 35.7279 23.5583 35.7439 23.5662C35.7599 23.5742 35.7759 23.59 35.7999 23.6059L36.2319 23.9394C36.3119 24.0029 36.3839 24.0585 36.4319 24.1141C36.4879 24.1617 36.5279 24.2173 36.5599 24.2649C36.5919 24.3126 36.6159 24.3602 36.6239 24.4158C36.6399 24.4634 36.6479 24.519 36.6479 24.5746C36.6799 24.5349 36.7119 24.5031 36.7439 24.4714C36.7759 24.4396 36.8239 24.4158 36.8719 24.3999C36.9199 24.384 36.9839 24.3681 37.0479 24.3523C37.1199 24.3443 37.1999 24.3364 37.2959 24.3364H37.7919C37.8399 24.3364 37.8719 24.3364 37.8959 24.3443C37.9199 24.3443 37.9439 24.3523 37.9599 24.3523C37.9759 24.3602 37.9839 24.3681 37.9919 24.3761C37.9999 24.384 38.0079 24.3999 38.0079 24.4237C38.0079 24.4475 37.9999 24.4714 37.9919 24.5031C37.9839 24.5349 37.9759 24.5746 37.9519 24.6302C37.9359 24.6857 37.9199 24.7254 37.9039 24.7572C37.8879 24.789 37.8799 24.8128 37.8639 24.8287C37.8479 24.8445 37.8399 24.8525 37.8239 24.8604C37.8079 24.8604 37.7919 24.8684 37.7759 24.8684L37.1999 24.8525C37.1199 24.8525 37.0559 24.8525 36.9919 24.8604C36.9359 24.8684 36.8799 24.8842 36.8399 24.9081C36.7999 24.9319 36.7599 24.9636 36.7359 25.0033C36.7119 25.043 36.6879 25.0907 36.6639 25.1542L36.6319 25.2495L37.5519 25.5591C37.5679 25.5671 37.5759 25.575 37.5839 25.583C37.5919 25.5909 37.5919 25.6068 37.5919 25.6306C37.5919 25.6544 37.5919 25.6782 37.5839 25.71C37.5759 25.7418 37.5679 25.7815 37.5439 25.8291C37.5279 25.8767 37.5119 25.9164 37.5039 25.9482C37.4879 25.98 37.4799 26.0038 37.4639 26.0197C37.4559 26.0355 37.4399 26.0435 37.4239 26.0514C37.4159 26.0594 37.3999 26.0594 37.3839 26.0514L36.4559 25.7418L36.4239 25.837C36.3999 25.8926 36.3999 25.9482 36.3999 25.9958C36.3999 26.0435 36.4079 26.0911 36.4319 26.1308C36.4479 26.1785 36.4799 26.2182 36.5199 26.2579C36.5599 26.2976 36.6159 26.3452 36.6799 26.3849L37.1439 26.7104C37.1599 26.7184 37.1759 26.7343 37.1839 26.7422C37.1919 26.7581 37.1999 26.766 37.1999 26.7978C37.1999 26.8137 37.1999 26.8454 37.1919 26.8772C37.1839 26.9169 37.1759 26.9566 37.1519 27.0122C37.1359 27.0598 37.1199 27.0995 37.1039 27.1313C37.0879 27.163 37.0799 27.1868 37.0639 27.2027C37.0479 27.2186 37.0399 27.2345 37.0239 27.2345C37.0079 27.2345 36.9999 27.2345 36.9839 27.2345C36.9679 27.2265 36.9519 27.2186 36.9279 27.2027C36.9039 27.1868 36.8799 27.171 36.8399 27.1471L36.4559 26.8613C36.3839 26.8057 36.3279 26.7501 36.2719 26.7104C36.2239 26.6628 36.1839 26.6152 36.1599 26.5675C36.1279 26.5199 36.1119 26.4802 36.0959 26.4325C36.0799 26.3849 36.0719 26.3373 36.0719 26.2817C36.0319 26.3293 35.9919 26.369 35.9439 26.4008C35.9039 26.4325 35.8559 26.4564 35.7999 26.4802C35.7439 26.504 35.6799 26.5199 35.6079 26.5278C35.5359 26.5358 35.4479 26.5437 35.3439 26.5437L34.7919 26.5516C34.7679 26.5516 34.7439 26.5516 34.7279 26.5516C34.7119 26.5516 34.6959 26.5516 34.6799 26.5516C34.6639 26.5516 34.6559 26.5516 34.6479 26.5516C34.6799 26.5278 34.6719 26.5278 34.6639 26.5278ZM36.4399 22.5658C36.2959 22.4864 36.1839 22.4149 36.0959 22.3435C36.0079 22.272 35.9359 22.2085 35.8959 22.137C35.8479 22.0656 35.8159 21.9862 35.8079 21.9147C35.7919 21.8353 35.7919 21.748 35.8079 21.6527C35.8079 21.613 35.8159 21.5812 35.8239 21.5495C35.8319 21.5177 35.8399 21.4859 35.8559 21.4542C35.8639 21.4224 35.8799 21.3986 35.8959 21.3748C35.9119 21.3589 35.9199 21.343 35.9279 21.3271C35.9439 21.3192 35.9519 21.3113 35.9599 21.3033C35.9759 21.3033 35.9919 21.2954 36.0079 21.2954C36.0239 21.2954 36.0559 21.2954 36.0799 21.2954C36.1119 21.2954 36.1439 21.3033 36.1839 21.3033C36.2639 21.3113 36.3119 21.3271 36.3439 21.343C36.3759 21.3589 36.3839 21.3827 36.3839 21.4065C36.3839 21.4224 36.3759 21.4304 36.3679 21.4462C36.3519 21.4542 36.3439 21.478 36.3279 21.4939C36.3199 21.5098 36.3039 21.5336 36.2879 21.5574C36.2719 21.5812 36.2639 21.613 36.2639 21.6527C36.2559 21.6844 36.2559 21.7083 36.2639 21.7321C36.2719 21.7559 36.2719 21.7797 36.2879 21.8035C36.3039 21.8274 36.3199 21.8512 36.3519 21.875C36.3839 21.8988 36.4159 21.9306 36.4639 21.9623L38.3039 21.343C38.3519 21.3271 38.3839 21.3192 38.4079 21.3192C38.4319 21.3192 38.4559 21.3271 38.4639 21.351C38.4799 21.3668 38.4799 21.3907 38.4799 21.4304C38.4799 21.4701 38.4719 21.5177 38.4639 21.5812C38.4559 21.6368 38.4479 21.6924 38.4399 21.7241C38.4319 21.7638 38.4239 21.7877 38.4079 21.8115C38.3999 21.8353 38.3839 21.8512 38.3679 21.8591C38.3519 21.8671 38.3279 21.875 38.2959 21.8909L37.4639 22.145C37.3759 22.1767 37.2879 22.2005 37.1999 22.2244C37.1119 22.2482 37.0239 22.272 36.9359 22.2958V22.3038C37.0239 22.3435 37.1039 22.3832 37.1839 22.4229C37.2639 22.4626 37.3519 22.5102 37.4399 22.5578L38.1919 22.9548C38.2079 22.9628 38.2239 22.9787 38.2319 22.9866C38.2399 22.9945 38.2479 23.0104 38.2479 23.0342C38.2479 23.0581 38.2559 23.0898 38.2479 23.1216C38.2479 23.1613 38.2399 23.2089 38.2319 23.2645C38.2239 23.3201 38.2159 23.3677 38.2079 23.4074C38.1999 23.4471 38.1839 23.4709 38.1759 23.4789C38.1599 23.4948 38.1439 23.5027 38.1279 23.4948C38.1039 23.4868 38.0799 23.4789 38.0479 23.463L36.4399 22.5658ZM36.0079 20.4934C35.9919 20.4934 35.9839 20.4934 35.9679 20.4855C35.9599 20.4776 35.9519 20.4617 35.9439 20.4458C35.9359 20.4299 35.9279 20.3982 35.9279 20.3664C35.9199 20.3346 35.9199 20.2949 35.9199 20.2394C35.9199 20.1838 35.9199 20.1441 35.9199 20.1123C35.9199 20.0806 35.9279 20.0488 35.9359 20.0329C35.9439 20.0091 35.9519 20.0012 35.9599 19.9932C35.9679 19.9853 35.9839 19.9853 35.9919 19.9853L38.0879 19.9218L38.0719 19.366C37.7599 19.3342 37.4959 19.3104 37.2639 19.2786C37.0319 19.2469 36.8319 19.2151 36.6719 19.1754C36.5039 19.1357 36.3759 19.096 36.2639 19.0404C36.1599 18.9928 36.0719 18.9293 36.0159 18.8658C35.9519 18.8022 35.9039 18.7308 35.8799 18.6434C35.8559 18.5561 35.8399 18.4608 35.8319 18.3576C35.8319 18.3417 35.8319 18.3179 35.8399 18.302C35.8479 18.2861 35.8559 18.2782 35.8719 18.2703C35.8879 18.2623 35.9039 18.2544 35.9359 18.2464C35.9599 18.2385 35.9999 18.2385 36.0399 18.2385C36.0959 18.2385 36.1439 18.2385 36.1839 18.2385C36.2159 18.2385 36.2479 18.2464 36.2639 18.2544C36.2879 18.2623 36.2959 18.2703 36.3039 18.2782C36.3119 18.2861 36.3119 18.302 36.3119 18.3179C36.3119 18.3576 36.3279 18.3973 36.3439 18.437C36.3599 18.4767 36.3919 18.5085 36.4479 18.5402C36.5039 18.572 36.5679 18.6037 36.6639 18.6355C36.7519 18.6672 36.8719 18.6911 37.0159 18.7228C37.1599 18.7467 37.3439 18.7705 37.5519 18.8022C37.7599 18.826 38.0159 18.8499 38.3119 18.8737C38.3759 18.8816 38.4319 18.8975 38.4559 18.9213C38.4799 18.9452 38.4959 18.9769 38.5039 19.0245L38.5439 20.2949C38.5439 20.3426 38.5359 20.3823 38.5039 20.4061C38.4799 20.4299 38.4319 20.4458 38.3759 20.4458L36.0079 20.4934ZM36.1999 17.8415C36.1679 17.8494 36.1359 17.8494 36.1199 17.8494C36.0959 17.8494 36.0719 17.8574 36.0559 17.8494C36.0399 17.8494 36.0239 17.8494 36.0079 17.8415C35.9999 17.8336 35.9839 17.8336 35.9599 17.8177C35.9439 17.8018 35.9119 17.778 35.8879 17.7462C35.8559 17.7065 35.8239 17.6668 35.7919 17.6112C35.7599 17.5557 35.7279 17.4921 35.6959 17.4207C35.6719 17.3492 35.6479 17.2619 35.6239 17.1745C35.5919 16.9999 35.5839 16.8411 35.6159 16.6902C35.6399 16.5393 35.6959 16.4044 35.7839 16.2853C35.8719 16.1662 35.9919 16.0629 36.1439 15.9835C36.2959 15.8962 36.4719 15.8406 36.6879 15.8009C36.9039 15.7612 37.1039 15.7533 37.2799 15.7771C37.4559 15.8009 37.6159 15.8565 37.7519 15.9359C37.8879 16.0153 37.9919 16.1265 38.0879 16.2614C38.1759 16.3964 38.2399 16.5473 38.2719 16.722C38.2879 16.7934 38.2879 16.8649 38.2959 16.9284C38.2959 16.9919 38.2959 17.0554 38.2879 17.119C38.2799 17.1745 38.2639 17.2301 38.2479 17.2778C38.2319 17.3254 38.2159 17.3651 38.1999 17.381C38.1839 17.3969 38.1759 17.4127 38.1599 17.4286C38.1519 17.4366 38.1359 17.4445 38.1199 17.4524C38.1039 17.4604 38.0799 17.4683 38.0559 17.4683C38.0319 17.4763 37.9999 17.4842 37.9679 17.4921C37.9279 17.5001 37.8879 17.508 37.8639 17.508C37.8399 17.508 37.8159 17.508 37.7919 17.508C37.7759 17.508 37.7599 17.5001 37.7519 17.4921C37.7439 17.4842 37.7359 17.4763 37.7359 17.4604C37.7359 17.4445 37.7359 17.4127 37.7599 17.381C37.7759 17.3492 37.7919 17.3016 37.8159 17.246C37.8319 17.1984 37.8479 17.1348 37.8559 17.0634C37.8639 16.9919 37.8639 16.9125 37.8479 16.8172C37.8319 16.714 37.7919 16.6346 37.7359 16.5632C37.6799 16.4917 37.6079 16.4361 37.5199 16.3964C37.4319 16.3567 37.3279 16.3329 37.2159 16.325C37.1039 16.317 36.9759 16.325 36.8399 16.3567C36.6879 16.3885 36.5599 16.4282 36.4559 16.4758C36.3519 16.5235 36.2719 16.587 36.2159 16.6584C36.1519 16.7299 36.1199 16.8093 36.0959 16.8966C36.0799 16.984 36.0799 17.0793 36.0959 17.1745C36.1119 17.2698 36.1439 17.3413 36.1759 17.4048C36.2079 17.4683 36.2399 17.516 36.2799 17.5636C36.3119 17.6033 36.3439 17.643 36.3759 17.6668C36.3999 17.6906 36.4159 17.7145 36.4239 17.7303C36.4239 17.7462 36.4239 17.7542 36.4239 17.7621C36.4159 17.77 36.4079 17.778 36.3999 17.7859C36.3839 17.7939 36.3599 17.8018 36.3359 17.8097C36.2799 17.8256 36.2479 17.8336 36.1999 17.8415ZM36.0959 11.7277L35.9679 11.4895C35.9119 11.3942 35.8639 11.3228 35.8239 11.2831C35.7759 11.2434 35.7359 11.2116 35.6879 11.1957C35.6399 11.1799 35.5999 11.1799 35.5519 11.1878C35.5039 11.1957 35.4559 11.2116 35.4079 11.2354C35.3599 11.2593 35.3199 11.299 35.2879 11.3307C35.2559 11.3704 35.2319 11.4101 35.2239 11.4578C35.2079 11.5054 35.2079 11.561 35.2239 11.6166C35.2319 11.6721 35.2639 11.7515 35.3119 11.8389L35.4479 12.085L36.0959 11.7277ZM34.4799 13.1887C34.4639 13.1966 34.4559 13.1966 34.4399 13.1966C34.4239 13.1966 34.4159 13.1887 34.3999 13.1728C34.3839 13.1569 34.3679 13.141 34.3519 13.1093C34.3359 13.0775 34.3119 13.0458 34.2879 12.9981C34.2639 12.9505 34.2399 12.9108 34.2319 12.887C34.2159 12.8552 34.2079 12.8314 34.2079 12.8076C34.2079 12.7837 34.2079 12.7679 34.2079 12.7599C34.2079 12.752 34.2239 12.7361 34.2319 12.7361L35.0879 12.2756L34.9919 12.1088C34.9519 12.0374 34.9199 11.9897 34.8799 11.958C34.8479 11.9262 34.8079 11.9103 34.7599 11.8945C34.7119 11.8786 34.6639 11.8786 34.6079 11.8786C34.5519 11.8786 34.4879 11.8865 34.4159 11.8945L33.8239 11.9897C33.8079 11.9897 33.7919 11.9897 33.7759 11.9897C33.7599 11.9897 33.7439 11.9739 33.7279 11.958C33.7119 11.9421 33.6879 11.9183 33.6719 11.8865C33.6479 11.8548 33.6319 11.8151 33.5999 11.7674C33.5759 11.7118 33.5519 11.6721 33.5359 11.6404C33.5199 11.6086 33.5119 11.5848 33.5119 11.561C33.5119 11.5451 33.5119 11.5292 33.5199 11.5133C33.5279 11.5054 33.5359 11.4975 33.5439 11.4895C33.5599 11.4816 33.5679 11.4736 33.5919 11.4736C33.6079 11.4657 33.6399 11.4578 33.6799 11.4578L34.2239 11.3863C34.2959 11.3784 34.3599 11.3704 34.4159 11.3704C34.4719 11.3704 34.5279 11.3784 34.5759 11.3863C34.6319 11.3942 34.6719 11.4101 34.7119 11.4339C34.7519 11.4498 34.7919 11.4816 34.8239 11.5054C34.8079 11.426 34.7999 11.3466 34.7999 11.2672C34.7999 11.1957 34.8159 11.1243 34.8399 11.0608C34.8639 10.9972 34.9039 10.9417 34.9519 10.8861C34.9999 10.8305 35.0639 10.7908 35.1439 10.7511C35.2479 10.6955 35.3519 10.6638 35.4559 10.6558C35.5599 10.6479 35.6639 10.6638 35.7599 10.7035C35.8559 10.7432 35.9519 10.8067 36.0399 10.894C36.1279 10.9814 36.2239 11.1163 36.3279 11.3069L36.6319 11.8627C36.6559 11.9024 36.6559 11.9342 36.6559 11.9739C36.6479 12.0136 36.6159 12.0453 36.5599 12.0691L34.4799 13.1887ZM34.2079 8.96461L33.1039 9.34573L33.5599 9.92535L34.2079 8.96461ZM33.4319 11.0608C33.3999 11.1005 33.3759 11.1322 33.3599 11.156C33.3439 11.1719 33.3199 11.1878 33.2959 11.1799C33.2799 11.1799 33.2559 11.164 33.2319 11.1322C33.2079 11.1084 33.1759 11.0687 33.1359 11.0131C33.0959 10.9575 33.0639 10.9178 33.0399 10.8861C33.0159 10.8543 32.9999 10.8305 32.9919 10.8146C32.9839 10.7908 32.9839 10.7749 32.9839 10.767C32.9839 10.7511 32.9919 10.7432 33.0079 10.7273L33.3119 10.2747L32.7119 9.51247L32.2079 9.69509C32.1919 9.70303 32.1679 9.70303 32.1599 9.71097C32.1439 9.71097 32.1279 9.70303 32.1119 9.69509C32.0879 9.68715 32.0719 9.66333 32.0479 9.63951C32.0239 9.61569 31.9919 9.57599 31.9599 9.52835C31.9199 9.48071 31.8959 9.44101 31.8719 9.40925C31.8559 9.37749 31.8479 9.35367 31.8559 9.33779C31.8559 9.32191 31.8719 9.29809 31.8959 9.29015C31.9199 9.27427 31.9519 9.25839 31.9999 9.24251L34.3119 8.46439C34.3359 8.45645 34.3519 8.45645 34.3759 8.45645C34.3919 8.45645 34.4159 8.46439 34.4319 8.47233C34.4479 8.48821 34.4799 8.51203 34.5039 8.54379C34.5279 8.57555 34.5679 8.61525 34.6079 8.67083C34.6559 8.73435 34.6959 8.78199 34.7199 8.82169C34.7439 8.86139 34.7679 8.89315 34.7759 8.91697C34.7839 8.94079 34.7919 8.96461 34.7839 8.98049C34.7839 8.99637 34.7679 9.02019 34.7519 9.03607L33.4319 11.0608ZM32.3599 7.25752C32.3999 7.21782 32.4239 7.17812 32.4399 7.13842C32.4559 7.09872 32.4639 7.05902 32.4559 7.01138C32.4479 6.97168 32.4399 6.92404 32.4079 6.88434C32.3839 6.8367 32.3439 6.78906 32.2799 6.73348L32.0879 6.55086L31.6239 7.04314L31.8399 7.24164C31.8959 7.28928 31.9439 7.32898 31.9919 7.34486C32.0399 7.36074 32.0799 7.36868 32.1279 7.36868C32.1679 7.36868 32.2079 7.3528 32.2479 7.33692C32.2959 7.32104 32.3279 7.29722 32.3599 7.25752ZM31.7039 8.15473C31.7439 8.11503 31.7759 8.06739 31.7919 8.01975C31.8079 7.97211 31.8159 7.92447 31.8079 7.87683C31.7999 7.82919 31.7839 7.77361 31.7519 7.71803C31.7199 7.66245 31.6719 7.60687 31.5999 7.54335L31.3759 7.32898L30.8719 7.86095L31.1519 8.12297C31.2079 8.17061 31.2559 8.21031 31.3039 8.23413C31.3519 8.25795 31.3999 8.27383 31.4479 8.27383C31.4959 8.27383 31.5439 8.26589 31.5919 8.25001C31.6159 8.22619 31.6639 8.20237 31.7039 8.15473ZM32.1119 8.51203C32.0479 8.57555 31.9839 8.63113 31.9119 8.67083C31.8399 8.70259 31.7679 8.73435 31.6959 8.74229C31.6239 8.75817 31.5519 8.75023 31.4799 8.74229C31.4079 8.72641 31.3359 8.71053 31.2559 8.67877C31.1839 8.64701 31.1119 8.60731 31.0399 8.55967C30.9679 8.51203 30.8959 8.44851 30.8159 8.37705L30.3119 7.90859C30.2799 7.87683 30.2639 7.84507 30.2559 7.80537C30.2479 7.76567 30.2639 7.72597 30.3119 7.67833L31.8559 6.03476C31.8959 5.99506 31.9359 5.97124 31.9759 5.97124C32.0159 5.97124 32.0479 5.98712 32.0879 6.01888L32.5679 6.46352C32.6879 6.56674 32.7759 6.66996 32.8399 6.76524C32.9039 6.86052 32.9439 6.9558 32.9599 7.04314C32.9759 7.13048 32.9759 7.22576 32.9439 7.3131C32.9199 7.40044 32.8639 7.48778 32.7839 7.56718C32.7359 7.61482 32.6959 7.64657 32.6399 7.67833C32.5919 7.71009 32.5439 7.72597 32.4879 7.74185C32.4319 7.75773 32.3759 7.75773 32.3199 7.74979C32.2639 7.74979 32.2079 7.73391 32.1519 7.71009C32.1919 7.77361 32.2319 7.82919 32.2479 7.90065C32.2719 7.96417 32.2799 8.03563 32.2799 8.10709C32.2799 8.17855 32.2639 8.24207 32.2319 8.31353C32.2159 8.38499 32.1759 8.44851 32.1119 8.51203ZM29.9679 6.003C30.0399 5.89184 30.1039 5.78068 30.1439 5.67746C30.1919 5.57424 30.2079 5.47102 30.2079 5.38368C30.2079 5.2884 30.1839 5.20106 30.1359 5.12166C30.0879 5.03433 30.0079 4.96287 29.9039 4.89141C29.7919 4.81995 29.6879 4.78025 29.5919 4.77231C29.4879 4.76437 29.3999 4.78025 29.3039 4.81995C29.2159 4.85965 29.1279 4.91523 29.0559 4.99463C28.9759 5.07403 28.9039 5.16136 28.8399 5.26458C28.7599 5.38368 28.7039 5.49484 28.6559 5.59806C28.6079 5.70128 28.5839 5.8045 28.5839 5.89978C28.5839 5.99506 28.6079 6.0824 28.6559 6.1618C28.7039 6.2412 28.7839 6.3206 28.8879 6.39206C28.9999 6.46352 29.1039 6.50322 29.1999 6.51116C29.2959 6.5191 29.3919 6.50322 29.4879 6.46352C29.5759 6.42382 29.6639 6.3603 29.7439 6.2809C29.8319 6.2015 29.9039 6.11416 29.9679 6.003ZM30.4479 6.28884C30.3279 6.47146 30.2079 6.61438 30.0639 6.72554C29.9279 6.8367 29.7759 6.9161 29.6239 6.9558C29.4719 6.9955 29.3119 6.9955 29.1439 6.96374C28.9759 6.93198 28.8079 6.86052 28.6399 6.74936C28.4719 6.6382 28.3359 6.5191 28.2399 6.39206C28.1439 6.26502 28.0799 6.13004 28.0559 5.98712C28.0319 5.83626 28.0399 5.6854 28.0959 5.51866C28.1439 5.35192 28.2319 5.17724 28.3599 4.98669C28.4719 4.81201 28.5999 4.66909 28.7359 4.55793C28.8719 4.44677 29.0159 4.37531 29.1679 4.32767C29.3199 4.28797 29.4799 4.28003 29.6479 4.31973C29.8159 4.35149 29.9839 4.42295 30.1519 4.53411C30.3199 4.64527 30.4479 4.75643 30.5439 4.88347C30.6399 5.01051 30.7039 5.14548 30.7279 5.2884C30.7519 5.43132 30.7439 5.59012 30.6959 5.75686C30.6559 5.9236 30.5759 6.09828 30.4479 6.28884ZM28.4079 3.79569C28.3919 3.83539 28.3759 3.86715 28.3599 3.88303C28.3439 3.90685 28.3359 3.92273 28.3199 3.93861C28.3119 3.95449 28.2959 3.95449 28.2799 3.96243C28.2639 3.96243 28.2559 3.96243 28.2399 3.95449L27.4559 3.59719L26.5759 5.4869C26.5759 5.50278 26.5679 5.51072 26.5519 5.51072C26.5359 5.51866 26.5199 5.51866 26.5039 5.51866C26.4799 5.51866 26.4559 5.51072 26.4239 5.50278C26.3919 5.4869 26.3519 5.47896 26.3039 5.45514C26.2559 5.43926 26.2239 5.41544 26.1919 5.39956C26.1599 5.38368 26.1359 5.3678 26.1279 5.35192C26.1119 5.33604 26.1039 5.3281 26.0959 5.31222C26.0879 5.29634 26.0959 5.2884 26.0959 5.27252L27.0879 3.14461C27.1119 3.08903 27.1439 3.06521 27.1759 3.04933C27.2159 3.03345 27.2559 3.04139 27.2959 3.05727L28.4159 3.57337C28.4399 3.58131 28.4479 3.60513 28.4479 3.64483C28.4559 3.66865 28.4399 3.72423 28.4079 3.79569ZM25.2959 3.66865C25.3359 3.53367 25.3599 3.41457 25.3679 3.30341C25.3759 3.19225 25.3679 3.08903 25.3439 3.00169C25.3199 2.91435 25.2639 2.83495 25.1999 2.77143C25.1279 2.70791 25.0319 2.66027 24.9039 2.62057C24.7759 2.58881 24.6719 2.58087 24.5679 2.60469C24.4719 2.62851 24.3839 2.67615 24.3119 2.73173C24.2399 2.79525 24.1759 2.87465 24.1199 2.97787C24.0719 3.07315 24.0319 3.18431 23.9919 3.30341C23.9519 3.43839 23.9279 3.56543 23.9199 3.67659C23.9119 3.78775 23.9199 3.89097 23.9439 3.98625C23.9679 4.08153 24.0239 4.15299 24.0959 4.21651C24.1679 4.28003 24.2639 4.32767 24.3919 4.36737C24.5119 4.39913 24.6239 4.40707 24.7279 4.38325C24.8239 4.35943 24.9119 4.31973 24.9839 4.25621C25.0559 4.19269 25.1199 4.10535 25.1679 4.01007C25.2239 3.89891 25.2639 3.78775 25.2959 3.66865ZM25.8399 3.78775C25.7839 3.99419 25.7039 4.16887 25.6079 4.31973C25.5119 4.47059 25.3919 4.58175 25.2559 4.66909C25.1199 4.74849 24.9759 4.80407 24.8079 4.81995C24.6399 4.83583 24.4559 4.81995 24.2639 4.76437C24.0719 4.70879 23.9039 4.63733 23.7759 4.54205C23.6479 4.44677 23.5439 4.33561 23.4799 4.20857C23.4159 4.07359 23.3759 3.92273 23.3759 3.74805C23.3759 3.57337 23.3999 3.37487 23.4639 3.16049C23.5199 2.96199 23.5999 2.78731 23.6959 2.64439C23.7919 2.49354 23.9119 2.38238 24.0479 2.30298C24.1839 2.21564 24.3279 2.168 24.4959 2.15212C24.6639 2.13624 24.8479 2.15212 25.0479 2.2077C25.2399 2.26328 25.3999 2.33474 25.5279 2.42208C25.6559 2.50942 25.7599 2.62057 25.8239 2.75555C25.8959 2.89053 25.9279 3.04139 25.9359 3.20813C25.9279 3.38281 25.9039 3.57337 25.8399 3.78775ZM22.4879 4.23239C22.4879 4.24827 22.4799 4.25621 22.4719 4.26415C22.4639 4.27209 22.4479 4.28003 22.4239 4.28797C22.3999 4.29591 22.3759 4.29591 22.3439 4.29591C22.3119 4.29591 22.2639 4.29591 22.2159 4.28797C22.1599 4.28003 22.1199 4.28003 22.0879 4.27209C22.0559 4.26415 22.0319 4.25621 22.0079 4.24827C21.9919 4.24033 21.9759 4.23239 21.9679 4.21651C21.9599 4.20857 21.9519 4.19269 21.9599 4.18475L22.1599 2.11242L21.6079 2.05684C21.5439 2.35856 21.4799 2.62057 21.4159 2.84289C21.3519 3.06521 21.2959 3.25577 21.2319 3.41457C21.1759 3.57337 21.1119 3.70041 21.0479 3.79569C20.9839 3.89097 20.9199 3.97037 20.8399 4.02595C20.7679 4.08153 20.6879 4.11329 20.5999 4.12917C20.5119 4.14505 20.4159 4.14505 20.3039 4.13711C20.2879 4.13711 20.2639 4.12917 20.2559 4.12123C20.2399 4.11329 20.2319 4.10535 20.2239 4.08947C20.2159 4.07359 20.2079 4.04977 20.2079 4.02595C20.2079 4.00213 20.2079 3.96243 20.2079 3.92273C20.2159 3.86715 20.2239 3.81951 20.2239 3.78775C20.2319 3.75599 20.2399 3.72423 20.2479 3.70835C20.2559 3.68453 20.2639 3.67659 20.2719 3.66865C20.2879 3.66071 20.2959 3.66071 20.3119 3.66071C20.3519 3.66865 20.3919 3.66071 20.4319 3.64483C20.4719 3.62895 20.5119 3.60513 20.5519 3.55749C20.5919 3.50985 20.6319 3.44633 20.6719 3.35899C20.7119 3.27165 20.7599 3.16049 20.7999 3.01757C20.8479 2.87465 20.8959 2.69997 20.9439 2.49354C20.9919 2.2871 21.0559 2.04096 21.1119 1.76306C21.1279 1.6916 21.1519 1.6519 21.1759 1.62014C21.1999 1.59632 21.2399 1.58838 21.2879 1.58838L22.5599 1.70748C22.6079 1.71542 22.6399 1.7313 22.6639 1.76306C22.6879 1.79482 22.6959 1.83452 22.6879 1.8901L22.4879 4.23239ZM18.5679 2.09654L18.2799 3.21607L19.0159 3.16049L18.5679 2.09654ZM19.8959 3.89891C19.9119 3.94655 19.9279 3.98625 19.9359 4.01007C19.9439 4.03389 19.9359 4.05771 19.9199 4.07359C19.9119 4.08947 19.8799 4.09741 19.8479 4.10535C19.8079 4.11329 19.7599 4.11329 19.6879 4.12123C19.6239 4.12917 19.5679 4.12917 19.5279 4.12917C19.4879 4.12917 19.4559 4.12917 19.4399 4.12123C19.4159 4.11329 19.4079 4.10535 19.3919 4.09741C19.3839 4.08947 19.3759 4.07359 19.3679 4.05771L19.1519 3.55749L18.1759 3.62895L18.0479 4.14505C18.0399 4.16887 18.0399 4.17681 18.0319 4.19269C18.0239 4.20857 18.0079 4.21651 17.9919 4.22445C17.9759 4.23239 17.9439 4.24033 17.9119 4.24827C17.8719 4.25621 17.8319 4.25621 17.7759 4.26415C17.7199 4.26415 17.6639 4.27209 17.6319 4.27209C17.5999 4.27209 17.5759 4.26415 17.5599 4.24827C17.5439 4.23239 17.5359 4.21651 17.5439 4.18475C17.5439 4.16093 17.5519 4.12123 17.5679 4.07359L18.1999 1.7313C18.2079 1.70748 18.2159 1.6916 18.2239 1.67572C18.2319 1.65984 18.2479 1.6519 18.2719 1.63602C18.2959 1.62808 18.3279 1.62014 18.3679 1.6122C18.4079 1.60426 18.4639 1.60426 18.5359 1.59632C18.6159 1.58838 18.6799 1.58838 18.7199 1.58838C18.7679 1.58838 18.8079 1.58838 18.8319 1.59632C18.8559 1.60426 18.8799 1.6122 18.8879 1.62808C18.8959 1.64396 18.9119 1.65984 18.9199 1.68366L19.8959 3.89891ZM17.0159 4.29591C17.0159 4.31179 17.0159 4.31973 17.0159 4.33561C17.0079 4.35149 16.9999 4.35943 16.9759 4.36737C16.9599 4.37531 16.9359 4.39119 16.9039 4.39913C16.8719 4.40707 16.8319 4.42295 16.7839 4.43089C16.7359 4.44677 16.6879 4.45471 16.6559 4.45471C16.6239 4.46265 16.5919 4.46265 16.5759 4.46265C16.5519 4.46265 16.5359 4.45471 16.5279 4.44677C16.5199 4.43883 16.5119 4.43089 16.5039 4.41501L16.2479 3.40663L15.3039 3.63689L15.5599 4.65321C15.5599 4.66115 15.5599 4.67703 15.5599 4.69291C15.5519 4.70879 15.5439 4.71673 15.5199 4.72467C15.5039 4.74055 15.4799 4.74849 15.4479 4.76437C15.4159 4.78025 15.3759 4.78819 15.3279 4.80407C15.2799 4.81201 15.2399 4.82789 15.1999 4.82789C15.1679 4.83583 15.1359 4.83583 15.1119 4.83583C15.0879 4.83583 15.0719 4.82789 15.0639 4.81995C15.0479 4.81201 15.0479 4.80407 15.0399 4.78819L14.4399 2.42208C14.4399 2.4062 14.4399 2.39826 14.4399 2.38238C14.4479 2.3665 14.4559 2.35856 14.4719 2.34268C14.4879 2.33474 14.5119 2.31886 14.5519 2.31092C14.5839 2.29504 14.6239 2.2871 14.6719 2.27122C14.7199 2.26328 14.7679 2.2474 14.7999 2.2474C14.8319 2.23946 14.8639 2.23946 14.8799 2.23946C14.9039 2.23946 14.9199 2.2474 14.9279 2.25534C14.9359 2.26328 14.9439 2.27122 14.9439 2.2871L15.1759 3.20813L16.1199 2.96993L15.8879 2.0489C15.8879 2.04096 15.8879 2.02508 15.8879 2.0092C15.8959 1.99332 15.9039 1.98538 15.9199 1.97744C15.9359 1.96156 15.9599 1.95362 15.9919 1.94568C16.0239 1.9298 16.0639 1.92186 16.1199 1.90598C16.1679 1.8901 16.2079 1.88216 16.2479 1.88216C16.2799 1.87422 16.3039 1.87422 16.3279 1.88216C16.3519 1.88216 16.3679 1.8901 16.3759 1.89804C16.3839 1.90598 16.3919 1.91392 16.3999 1.9298L17.0159 4.29591ZM10.5679 4.53411L10.3359 4.67703C10.2399 4.74055 10.1759 4.78819 10.1359 4.83583C10.0959 4.87553 10.0719 4.92317 10.0559 4.97081C10.0479 5.01845 10.0399 5.06609 10.0559 5.11372C10.0639 5.16136 10.0879 5.209 10.1199 5.25664C10.1519 5.30428 10.1839 5.34398 10.2239 5.37574C10.2639 5.4075 10.3039 5.42338 10.3599 5.43132C10.4079 5.43926 10.4639 5.43926 10.5199 5.42338C10.5759 5.4075 10.6479 5.37574 10.7359 5.32016L10.9759 5.1693L10.5679 4.53411ZM12.1519 6.0427C12.1599 6.05064 12.1599 6.06652 12.1599 6.0824C12.1599 6.09034 12.1519 6.10622 12.1359 6.1221C12.1279 6.13798 12.1039 6.15386 12.0799 6.17768C12.0559 6.2015 12.0159 6.22532 11.9759 6.24914C11.9359 6.27296 11.8959 6.29678 11.8639 6.31266C11.8319 6.32854 11.8079 6.33648 11.7839 6.34442C11.7599 6.35236 11.7439 6.35236 11.7359 6.34442C11.7199 6.33648 11.7119 6.32854 11.7039 6.3206L11.1839 5.50278L11.0159 5.606C10.9519 5.6457 10.9039 5.6854 10.8719 5.7251C10.8479 5.7648 10.8239 5.8045 10.8159 5.8442C10.8079 5.89184 10.7999 5.93948 10.8079 5.99506C10.8159 6.05064 10.8239 6.11416 10.8399 6.18562L10.9759 6.7573C10.9759 6.77318 10.9759 6.78906 10.9759 6.80494C10.9759 6.82082 10.9599 6.8367 10.9519 6.85258C10.9359 6.86846 10.9119 6.88434 10.8879 6.90816C10.8559 6.93198 10.8239 6.9558 10.7759 6.97962C10.7199 7.01138 10.6799 7.0352 10.6479 7.05108C10.6159 7.06696 10.5919 7.0749 10.5759 7.08284C10.5519 7.09078 10.5359 7.09078 10.5279 7.08284C10.5199 7.0749 10.5119 7.06696 10.5039 7.05902C10.4959 7.05108 10.4879 7.0352 10.4799 7.01138C10.4719 6.9955 10.4639 6.96374 10.4559 6.92404L10.3439 6.39206C10.3279 6.3206 10.3199 6.25708 10.3199 6.2015C10.3119 6.14592 10.3199 6.09034 10.3199 6.0427C10.3279 5.99506 10.3359 5.94742 10.3519 5.90772C10.3679 5.86802 10.3919 5.82832 10.4159 5.78862C10.3359 5.81244 10.2559 5.82832 10.1839 5.82832C10.1119 5.82832 10.0399 5.82038 9.97592 5.8045C9.91192 5.78068 9.84792 5.74892 9.79192 5.70128C9.73592 5.65364 9.68792 5.59806 9.63992 5.5266C9.57592 5.43132 9.53592 5.3281 9.51992 5.22488C9.50392 5.12167 9.51192 5.01845 9.54392 4.92317C9.57592 4.82789 9.63192 4.72467 9.71192 4.63733C9.79192 4.54205 9.92792 4.43883 10.1039 4.32767L10.6399 3.99419C10.6799 3.97037 10.7119 3.96243 10.7519 3.97037C10.7919 3.97831 10.8239 4.00213 10.8559 4.04977L12.1519 6.0427ZM7.91992 6.59056L8.37592 7.65451L8.92792 7.17018L7.91992 6.59056ZM10.0799 7.21782C10.1279 7.24164 10.1599 7.26546 10.1759 7.28134C10.1999 7.29722 10.2079 7.32104 10.2079 7.33692C10.2079 7.36074 10.1919 7.38456 10.1679 7.40838C10.1439 7.44014 10.1039 7.4719 10.0559 7.5116C10.0079 7.55924 9.95992 7.59099 9.93592 7.61481C9.90392 7.63863 9.87992 7.65451 9.86392 7.66245C9.83992 7.67039 9.83192 7.67833 9.81592 7.67039C9.79992 7.67039 9.79192 7.66245 9.76792 7.65451L9.28792 7.38456L8.55992 8.02769L8.77592 8.51203C8.78392 8.52791 8.79192 8.55173 8.79192 8.55967C8.79192 8.57555 8.79192 8.59143 8.78392 8.60731C8.77592 8.62319 8.75992 8.64701 8.73592 8.67083C8.71192 8.69465 8.67992 8.72641 8.63192 8.76611C8.58392 8.80581 8.54392 8.83757 8.51992 8.85345C8.48792 8.86933 8.46392 8.88521 8.44792 8.87727C8.42392 8.87727 8.40792 8.86139 8.39192 8.83757C8.37592 8.81375 8.35992 8.78199 8.34392 8.73435L7.39992 6.5191C7.39192 6.49528 7.38392 6.4794 7.38392 6.45558C7.38392 6.4397 7.39192 6.41588 7.39992 6.4C7.41592 6.37618 7.43192 6.35236 7.46392 6.3206C7.49592 6.28884 7.53592 6.25708 7.58392 6.20944C7.64792 6.15386 7.68792 6.11416 7.72792 6.0824C7.75992 6.05064 7.79192 6.03476 7.81592 6.01888C7.83992 6.01094 7.86392 6.003 7.87992 6.003C7.89592 6.003 7.91992 6.01888 7.94392 6.02682L10.0799 7.21782ZM8.03192 9.27427C8.03992 9.28221 8.04792 9.29015 8.04792 9.30603C8.04792 9.32191 8.04792 9.33779 8.03992 9.36161C8.03192 9.37749 8.01592 9.40131 7.99992 9.43307C7.98392 9.46483 7.95992 9.49659 7.92792 9.53629C7.89592 9.57599 7.86392 9.60775 7.83992 9.63157C7.81592 9.65539 7.79192 9.67127 7.77592 9.68715C7.75992 9.70303 7.74392 9.70303 7.72792 9.70303C7.71192 9.70303 7.70392 9.69509 7.68792 9.68715L6.87992 9.02813L6.27192 9.78243L7.08792 10.4335C7.09592 10.4414 7.10392 10.4494 7.11192 10.4653C7.11192 10.4811 7.11192 10.497 7.10392 10.5129C7.09592 10.5288 7.07992 10.5605 7.06392 10.5844C7.04792 10.6161 7.02392 10.6479 6.99192 10.6876C6.95992 10.7273 6.93592 10.759 6.90392 10.7829C6.87992 10.8067 6.85592 10.8226 6.83992 10.8384C6.82392 10.8464 6.80792 10.8543 6.79192 10.8543C6.77592 10.8543 6.76792 10.8464 6.75192 10.8384L4.83192 9.32191C4.82392 9.31397 4.81592 9.30603 4.80792 9.29015C4.80792 9.27427 4.80792 9.25839 4.81592 9.24251C4.82392 9.22663 4.83992 9.20281 4.85592 9.17105C4.87192 9.13929 4.89592 9.10753 4.92792 9.06783C4.95992 9.02813 4.99192 8.99637 5.01592 8.97255C5.03992 8.94873 5.06392 8.93285 5.07992 8.91697C5.09592 8.90109 5.11192 8.90109 5.12792 8.90109C5.14392 8.90109 5.15192 8.90903 5.15992 8.91697L5.90392 9.51247L6.51192 8.75817L5.76792 8.17061C5.75992 8.16267 5.75192 8.15473 5.75192 8.13885C5.75192 8.12297 5.75192 8.10709 5.75992 8.09121C5.76792 8.07533 5.78392 8.05151 5.79992 8.01975C5.82392 7.98799 5.84792 7.95623 5.87992 7.91653C5.91192 7.87683 5.94392 7.84507 5.96792 7.82125C5.99192 7.79743 6.00792 7.78155 6.03192 7.76567C6.04792 7.75773 6.06392 7.74979 6.07992 7.74979C6.09592 7.74979 6.10392 7.74979 6.11992 7.75773L8.03192 9.27427ZM5.52792 11.426C5.47192 11.3942 5.41592 11.3784 5.35992 11.3704C5.30392 11.3625 5.25592 11.3625 5.19992 11.3863C5.15192 11.4022 5.10392 11.4339 5.05592 11.4736C5.00792 11.5213 4.95992 11.5927 4.89592 11.696L4.75192 11.958L5.47192 12.355L5.62392 12.085C5.68792 11.9739 5.71992 11.8865 5.72792 11.823C5.73592 11.7595 5.73592 11.696 5.71192 11.6483C5.69592 11.6007 5.66392 11.553 5.63192 11.5213C5.60792 11.4816 5.56792 11.4498 5.52792 11.426ZM5.75192 10.9337C5.85592 10.9972 5.95192 11.0687 6.02392 11.1481C6.09592 11.2275 6.14392 11.3228 6.17592 11.4339C6.19992 11.5372 6.19992 11.6642 6.17592 11.7992C6.15192 11.9342 6.07992 12.1009 5.96792 12.2994L5.65592 12.8631C5.63992 12.879 5.63192 12.8949 5.61592 12.9108C5.59992 12.9267 5.58392 12.9346 5.56792 12.9425C5.55192 12.9505 5.52792 12.9505 5.50392 12.9505C5.47992 12.9505 5.45592 12.9346 5.43192 12.9267L3.35992 11.7833C3.34392 11.7754 3.33592 11.7674 3.33592 11.7595C3.33592 11.7436 3.33592 11.7277 3.33592 11.7118C3.34392 11.688 3.35192 11.6642 3.35992 11.6324C3.37592 11.6007 3.39192 11.561 3.41592 11.5213C3.43992 11.4736 3.46392 11.4419 3.47992 11.4101C3.49592 11.3784 3.51992 11.3625 3.53592 11.3466C3.55192 11.3307 3.56792 11.3228 3.57592 11.3228C3.59192 11.3228 3.59992 11.3228 3.61592 11.3307L4.38392 11.7595L4.55992 11.4419C4.65592 11.2672 4.74392 11.1481 4.83192 11.0608C4.91992 10.9734 5.00792 10.9178 5.11192 10.8781C5.20792 10.8384 5.31192 10.8226 5.42392 10.8384C5.53592 10.8384 5.63992 10.8781 5.75192 10.9337ZM5.17592 13.673C5.19192 13.681 5.19992 13.6889 5.20792 13.6968C5.21592 13.7127 5.21592 13.7207 5.21592 13.7445C5.21592 13.7683 5.20792 13.7921 5.20792 13.8239C5.19992 13.8556 5.18392 13.8953 5.16792 13.943C5.15192 13.9906 5.13592 14.0303 5.11992 14.0621C5.10392 14.0938 5.09592 14.1176 5.07992 14.1335C5.06392 14.1494 5.05592 14.1573 5.03992 14.1653C5.02392 14.1732 5.01592 14.1732 4.99992 14.1653L3.02392 13.4666L2.83992 13.9906C3.11992 14.1256 3.35192 14.2526 3.55992 14.3638C3.75992 14.4749 3.93592 14.5782 4.07192 14.6734C4.20792 14.7687 4.31992 14.864 4.39992 14.9434C4.47992 15.0307 4.53592 15.1101 4.57592 15.1975C4.60792 15.2848 4.62392 15.3642 4.61592 15.4516C4.60792 15.5389 4.58392 15.6342 4.55192 15.7374C4.54392 15.7533 4.53592 15.7692 4.52792 15.785C4.51992 15.8009 4.50392 15.8089 4.48792 15.8089C4.47192 15.8089 4.44792 15.8089 4.42392 15.8089C4.39992 15.8009 4.35992 15.793 4.32792 15.7771C4.27192 15.7612 4.23192 15.7374 4.19992 15.7215C4.16792 15.7056 4.14392 15.6977 4.12792 15.6818C4.11192 15.6659 4.10392 15.658 4.10392 15.6421C4.10392 15.6262 4.10392 15.6183 4.10392 15.6024C4.11992 15.5627 4.12792 15.523 4.11992 15.4833C4.11992 15.4436 4.09592 15.396 4.06392 15.3483C4.03192 15.2928 3.97592 15.2451 3.90392 15.1816C3.83192 15.1181 3.72792 15.0466 3.59992 14.9752C3.47192 14.8958 3.31192 14.8084 3.12792 14.7052C2.94392 14.602 2.71192 14.4908 2.45592 14.3638C2.39192 14.332 2.35192 14.3003 2.33592 14.2685C2.31992 14.2367 2.31992 14.197 2.33592 14.1573L2.76792 12.9664C2.78392 12.9187 2.80792 12.8949 2.84792 12.879C2.87992 12.8631 2.92792 12.8631 2.97592 12.887L5.17592 13.673ZM2.13592 16.9284L3.15992 17.4763L3.27992 16.7537L2.13592 16.9284ZM4.21592 16.0868C4.26392 16.0788 4.30392 16.0788 4.33592 16.0788C4.36792 16.0788 4.38392 16.0868 4.39992 16.1026C4.41592 16.1185 4.41592 16.1503 4.41592 16.182C4.41592 16.2217 4.40792 16.2694 4.39192 16.3329C4.37592 16.3964 4.36792 16.452 4.35992 16.4917C4.35192 16.5314 4.34392 16.5552 4.33592 16.579C4.32792 16.5949 4.31192 16.6108 4.30392 16.6108C4.29592 16.6187 4.27992 16.6187 4.25592 16.6267L3.71192 16.7061L3.54392 17.6668L4.01592 17.913C4.03192 17.9209 4.04792 17.9288 4.05592 17.9368C4.07192 17.9447 4.07192 17.9606 4.07992 17.9844C4.08792 18.0082 4.08792 18.0321 4.07992 18.0718C4.07992 18.1035 4.07192 18.1512 4.06392 18.2067C4.05592 18.2703 4.03992 18.3179 4.03192 18.3497C4.02392 18.3814 4.00792 18.4052 3.99192 18.4132C3.97592 18.4211 3.95192 18.4211 3.92792 18.4132C3.90392 18.4052 3.86392 18.3894 3.82392 18.3655L1.68792 17.1904C1.67192 17.1825 1.64792 17.1666 1.63992 17.1507C1.63192 17.1348 1.62392 17.119 1.61592 17.0951C1.61592 17.0713 1.61592 17.0396 1.61592 16.9999C1.62392 16.9602 1.63192 16.9046 1.63992 16.8411C1.65592 16.7617 1.66392 16.7061 1.67192 16.6584C1.67992 16.6108 1.69592 16.579 1.70392 16.5552C1.71192 16.5314 1.72792 16.5155 1.74392 16.5076C1.75992 16.4996 1.78392 16.4917 1.80792 16.4917L4.21592 16.0868ZM2.21592 19.0881C2.11992 19.0881 2.04792 19.096 1.99192 19.1278C1.92792 19.1595 1.88792 19.1992 1.85592 19.2389C1.82392 19.2866 1.80792 19.3342 1.79992 19.3898C1.79192 19.4374 1.78392 19.493 1.78392 19.5486L1.77592 19.7709L2.65592 19.7947L2.66392 19.5565C2.66392 19.4771 2.65592 19.4057 2.63192 19.3501C2.60792 19.2945 2.58392 19.2469 2.54392 19.2072C2.50392 19.1675 2.45592 19.1436 2.39992 19.1198C2.34392 19.1039 2.28792 19.096 2.21592 19.0881ZM2.19192 18.5402C2.33592 18.5402 2.46392 18.572 2.57592 18.6196C2.68792 18.6672 2.78392 18.7387 2.85592 18.826C2.92792 18.9134 2.98392 19.0245 3.02392 19.1516C3.06392 19.2786 3.07992 19.4295 3.07192 19.5962L3.06392 19.8106L3.89592 19.8344C3.91192 19.8344 3.91992 19.8424 3.93592 19.8503C3.94392 19.8582 3.95192 19.8741 3.95992 19.8979C3.96792 19.9138 3.96792 19.9456 3.97592 19.9773C3.97592 20.0091 3.97592 20.0567 3.97592 20.1044C3.97592 20.16 3.96792 20.1997 3.96792 20.2314C3.96792 20.2632 3.95992 20.287 3.95192 20.3108C3.94392 20.3267 3.93592 20.3426 3.92792 20.3505C3.91192 20.3585 3.90392 20.3585 3.88792 20.3585L1.55192 20.2949C1.48792 20.2949 1.43992 20.2711 1.41592 20.2394C1.38392 20.2076 1.36792 20.16 1.36792 20.1123L1.38392 19.5009C1.38392 19.4374 1.39192 19.3818 1.39992 19.3263C1.40792 19.2707 1.41592 19.2072 1.43192 19.1278C1.44792 19.0563 1.47992 18.969 1.51992 18.8975C1.56792 18.8181 1.61592 18.7546 1.67992 18.699C1.74392 18.6434 1.82392 18.6037 1.90392 18.5799C1.99192 18.5482 2.08792 18.5402 2.19192 18.5402ZM3.78392 21.0492C3.82392 21.0492 3.85592 21.0413 3.87992 21.0413C3.90392 21.0413 3.92792 21.0413 3.94392 21.0492C3.95992 21.0572 3.96792 21.0572 3.97592 21.0651C3.98392 21.0731 3.99192 21.081 3.99192 21.0969L4.14392 22.3832C4.14392 22.4229 4.13592 22.4626 4.11992 22.4943C4.09592 22.5261 4.05592 22.542 3.99992 22.5499L1.75192 22.8119C1.69592 22.8199 1.64792 22.8119 1.61592 22.7802C1.58392 22.7563 1.56792 22.7166 1.55992 22.6769L1.40792 21.3986C1.40792 21.3907 1.40792 21.3748 1.41592 21.3668C1.42392 21.3589 1.43192 21.343 1.44792 21.343C1.46392 21.3351 1.48792 21.3271 1.51192 21.3192C1.53592 21.3113 1.56792 21.3113 1.60792 21.3033C1.64792 21.2954 1.67992 21.2954 1.70392 21.2954C1.72792 21.2954 1.75192 21.2954 1.76792 21.3033C1.78392 21.3033 1.79992 21.3113 1.80792 21.3192C1.81592 21.3271 1.82392 21.3351 1.82392 21.351L1.92792 22.2641L2.55992 22.1926L2.47192 21.4145C2.47192 21.4065 2.47192 21.3907 2.47992 21.3827C2.48792 21.3748 2.49592 21.3668 2.51192 21.3589C2.52792 21.351 2.54392 21.343 2.57592 21.3351C2.59992 21.3351 2.63192 21.3271 2.67192 21.3192C2.71192 21.3113 2.74392 21.3113 2.76792 21.3113C2.79192 21.3113 2.81592 21.3192 2.83192 21.3192C2.84792 21.3192 2.85592 21.3271 2.86392 21.343C2.87192 21.351 2.87992 21.3589 2.87992 21.3748L2.95992 22.1529L3.68792 22.0735L3.57592 21.1525C3.57592 21.1366 3.57592 21.1286 3.58392 21.1207C3.59192 21.1128 3.59992 21.1048 3.61592 21.0969C3.63192 21.0889 3.65592 21.081 3.67992 21.0731C3.71192 21.0572 3.74392 21.0572 3.78392 21.0492ZM2.37592 24.519L2.54392 25.0986C2.74392 25.0669 2.92792 25.043 3.07992 25.0192C3.23192 25.0033 3.36792 24.9875 3.48792 24.9716C3.60792 24.9636 3.71192 24.9557 3.79992 24.9557C3.88792 24.9557 3.96792 24.9557 4.03192 24.9636C4.09592 24.9716 4.15192 24.9795 4.20792 24.9954C4.25592 25.0113 4.30392 25.0272 4.34392 25.043L4.05592 24.0347L2.37592 24.519ZM4.81592 22.9469C4.83192 22.939 4.83992 22.939 4.84792 22.9469C4.86392 22.9548 4.87192 22.9628 4.87992 22.9707C4.88792 22.9866 4.90392 23.0104 4.91192 23.0342C4.91992 23.0581 4.93592 23.0978 4.95192 23.1454C4.96792 23.1851 4.97592 23.2248 4.97592 23.2566C4.97592 23.2883 4.98392 23.3121 4.98392 23.328C4.98392 23.3439 4.97592 23.3598 4.97592 23.3677C4.96792 23.3757 4.95992 23.3836 4.94392 23.3836L4.35192 23.5503L4.82392 25.2018L5.41592 25.0351C5.43192 25.0272 5.43992 25.0272 5.45592 25.0351C5.46392 25.043 5.47992 25.051 5.48792 25.0669C5.49592 25.0827 5.51192 25.1066 5.51992 25.1304C5.53592 25.1542 5.54392 25.1939 5.55992 25.2336C5.57592 25.2812 5.58392 25.313 5.58392 25.3448C5.59192 25.3686 5.59192 25.4003 5.59192 25.4162C5.59192 25.4321 5.59192 25.448 5.58392 25.4559C5.57592 25.4639 5.56792 25.4718 5.55192 25.4718L4.65592 25.7259C4.61592 25.7418 4.59192 25.7418 4.56792 25.7259C4.54392 25.71 4.52792 25.6941 4.51992 25.6624L4.48792 25.5512C4.43192 25.5353 4.38392 25.5194 4.32792 25.5036C4.27192 25.4877 4.20792 25.4797 4.14392 25.4718C4.07192 25.4639 3.99192 25.4639 3.89592 25.4639C3.79992 25.4639 3.68792 25.4718 3.55192 25.4797C3.41592 25.4877 3.25592 25.5115 3.07992 25.5353C2.89592 25.5591 2.68792 25.5909 2.43992 25.6306C2.37592 25.6385 2.33592 25.6385 2.30392 25.6227C2.27192 25.6068 2.24792 25.583 2.23192 25.5353L1.86392 24.2649C1.84792 24.2173 1.85592 24.1776 1.87192 24.1458C1.88792 24.1141 1.92792 24.0903 1.98392 24.0744L3.91192 23.5265L3.85592 23.3201C3.84792 23.2883 3.84792 23.2566 3.86392 23.2407C3.87992 23.2248 3.90392 23.2089 3.93592 23.201L4.81592 22.9469ZM4.95192 26.0832C4.99192 26.0673 5.01592 26.0594 5.03992 26.0435C5.06392 26.0355 5.08792 26.0276 5.10392 26.0276C5.11992 26.0276 5.13592 26.0276 5.15192 26.0355C5.15992 26.0435 5.16792 26.0514 5.17592 26.0594L5.73592 27.2345C5.75192 27.2742 5.75992 27.3139 5.74392 27.3536C5.73592 27.3933 5.70392 27.425 5.64792 27.4489L3.59992 28.4096C3.54392 28.4334 3.50392 28.4414 3.46392 28.4255C3.42392 28.4096 3.39992 28.3778 3.38392 28.3381L2.83192 27.171C2.82392 27.163 2.82392 27.1471 2.82392 27.1392C2.82392 27.1233 2.83192 27.1154 2.84792 27.0995C2.86392 27.0836 2.87192 27.0757 2.89592 27.0598C2.91992 27.0439 2.95192 27.028 2.98392 27.0122C3.01592 26.9963 3.04792 26.9883 3.07192 26.9725C3.09592 26.9645 3.11992 26.9645 3.13592 26.9566C3.15192 26.9566 3.16792 26.9566 3.17592 26.9645C3.18392 26.9725 3.19192 26.9804 3.19992 26.9883L3.59992 27.822L4.17592 27.5521L3.83992 26.8454C3.83192 26.8375 3.83192 26.8216 3.83192 26.8137C3.83192 26.8057 3.83992 26.7898 3.85592 26.774C3.86392 26.7581 3.87992 26.7501 3.90392 26.7343C3.92792 26.7184 3.95192 26.7025 3.99192 26.6866C4.03192 26.6707 4.05592 26.6628 4.07992 26.6549C4.10392 26.6469 4.12792 26.639 4.14392 26.639C4.15992 26.639 4.17592 26.639 4.18392 26.6469C4.19192 26.6549 4.19992 26.6628 4.20792 26.6707L4.54392 27.3774L5.20792 27.0677L4.80792 26.2261C4.79992 26.2182 4.79992 26.2023 4.80792 26.1943C4.80792 26.1785 4.81592 26.1705 4.82392 26.1546C4.83992 26.1388 4.85592 26.1308 4.87992 26.1149C4.88792 26.1149 4.91992 26.0991 4.95192 26.0832ZM5.36792 30.3549C5.43992 30.4343 5.50392 30.4899 5.57592 30.5216C5.64792 30.5613 5.71192 30.5772 5.77592 30.5851C5.83992 30.5931 5.90392 30.5851 5.97592 30.5613C6.03992 30.5454 6.10392 30.5137 6.15992 30.466C6.23192 30.4184 6.28792 30.3628 6.33592 30.3072C6.38392 30.2517 6.41592 30.1881 6.43192 30.1246C6.44792 30.0611 6.45592 29.9896 6.43992 29.9182C6.42392 29.8388 6.39192 29.7594 6.34392 29.672L5.36792 30.3549ZM5.25592 29.148C5.18392 29.1956 5.12792 29.2512 5.08792 29.3068C5.03992 29.3624 5.00792 29.418 4.99192 29.4815C4.97592 29.545 4.97592 29.6165 4.98392 29.6879C4.99992 29.7673 5.03192 29.8467 5.07992 29.942L6.05592 29.2671C5.98392 29.1877 5.91992 29.1321 5.84792 29.1004C5.78392 29.0607 5.71192 29.0368 5.64792 29.0368C5.58392 29.0289 5.51192 29.0368 5.44792 29.0607C5.38392 29.0686 5.31992 29.1083 5.25592 29.148ZM4.93592 28.7272C5.05592 28.6478 5.17592 28.5843 5.30392 28.5605C5.43192 28.5287 5.55192 28.5287 5.67192 28.5525C5.79992 28.5763 5.91992 28.6319 6.03992 28.7113C6.15992 28.7907 6.27992 28.8939 6.39192 29.0368L6.63992 28.8622C6.65592 28.8542 6.66392 28.8542 6.67992 28.8542C6.69592 28.8542 6.70392 28.8622 6.71992 28.8701C6.73592 28.886 6.75192 28.9019 6.77592 28.9257C6.79992 28.9495 6.82392 28.9892 6.84792 29.0289C6.87192 29.0686 6.90392 29.1083 6.91192 29.1321C6.92792 29.1639 6.94392 29.1877 6.94392 29.2036C6.95192 29.2274 6.95192 29.2433 6.95192 29.2512C6.95192 29.2592 6.94392 29.275 6.92792 29.283L6.67992 29.4577C6.77592 29.6085 6.83992 29.7435 6.88792 29.8864C6.92792 30.0214 6.94392 30.1484 6.92792 30.2675C6.91192 30.3866 6.87192 30.4978 6.79192 30.609C6.71992 30.7122 6.61592 30.8154 6.48792 30.9027C6.37592 30.9821 6.25592 31.0377 6.13592 31.0615C6.01592 31.0933 5.89592 31.0933 5.76792 31.0695C5.63992 31.0457 5.51992 30.9901 5.39992 30.9107C5.27992 30.8313 5.15992 30.7201 5.04792 30.5931L4.81592 30.7519C4.79992 30.7598 4.79192 30.7598 4.77592 30.7598C4.75992 30.7598 4.75192 30.7519 4.73592 30.736C4.71992 30.7201 4.70392 30.7042 4.67992 30.6804C4.65592 30.6566 4.63192 30.6248 4.60792 30.5851C4.57592 30.5454 4.55992 30.5137 4.54392 30.4819C4.52792 30.4502 4.51192 30.4263 4.50392 30.4105C4.49592 30.3946 4.49592 30.3787 4.49592 30.3628C4.49592 30.3469 4.50392 30.339 4.51992 30.3311L4.75192 30.1723C4.65592 30.0214 4.59192 29.8785 4.55192 29.7435C4.51192 29.6085 4.50392 29.4815 4.51192 29.3624C4.52792 29.2433 4.56792 29.1321 4.63992 29.021C4.71192 28.9098 4.80792 28.8145 4.93592 28.7272Z" fill="white"/>
<path d="M28.2239 32.3316L28.1439 32.2364C28.0639 32.1411 27.7279 31.8076 26.9439 31.8155C26.6639 31.8155 26.3599 31.8552 26.0239 31.9426C25.7199 32.014 25.3519 32.1331 24.9039 32.284C24.8559 32.1887 24.7999 32.0934 24.7199 32.014C24.3999 31.6567 23.8239 31.4741 23.0239 31.4741C21.9199 31.4821 20.3919 31.8235 18.8319 32.419C17.7519 32.8319 16.7759 33.0383 15.9279 33.0462C14.6079 33.0542 13.8159 32.5857 13.1199 32.1808L12.7599 31.9664L12.3039 31.6964L12.2159 32.2125L11.2959 37.7229L11.6319 37.8737L11.7919 36.9209L12.5679 32.2761L12.5839 32.284V32.2761L12.9439 32.4904C13.4719 32.8001 14.0879 33.1653 14.9679 33.3241C15.2559 33.3797 15.5759 33.4115 15.9199 33.4035C16.8159 33.3956 17.8319 33.1812 18.9519 32.7525C20.4719 32.1728 21.9599 31.8394 23.0159 31.8314C23.2719 31.8314 23.5039 31.8473 23.7039 31.887C24.0399 31.9505 24.2959 32.0696 24.4559 32.2443C24.5759 32.3793 24.6479 32.546 24.6559 32.7366C25.2079 32.554 25.7279 32.3793 26.1039 32.284C26.4159 32.2046 26.6959 32.1728 26.9439 32.1649C26.9759 32.1649 26.9999 32.1649 27.0319 32.1728C27.0639 32.1728 27.0959 32.1728 27.1279 32.1728C27.1519 32.1728 27.1759 32.1728 27.1999 32.1808C27.2559 32.1887 27.3119 32.1967 27.3599 32.2046H27.3679C27.5119 32.2364 27.6239 32.2761 27.7039 32.3237C27.8079 32.3793 28.0319 32.1808 28.0319 32.1808L27.0719 38.4295L27.3919 38.2945C27.4159 38.1437 27.4399 37.9849 27.4639 37.8181C27.5679 37.175 27.6479 36.7065 27.6559 36.7065L27.6719 36.5874L27.6959 36.4445L27.6799 36.4286C27.7519 35.984 27.8239 35.5473 27.8879 35.1344C28.0879 33.9037 28.2479 32.9033 28.2719 32.7525C28.2719 32.7445 28.2719 32.7366 28.2719 32.7366L28.2879 32.6175L28.3119 32.4587L28.2239 32.3316Z" fill="#0066B3"/>
<path d="M19.9921 34.2694C12.0801 34.2694 5.70407 28.1159 5.48007 20.2633C5.24807 12.3154 11.5761 5.6696 19.5841 5.43934C19.7281 5.4314 19.8721 5.4314 20.0081 5.4314C27.9201 5.4314 34.2961 11.5849 34.5201 19.4296C34.6321 23.2804 33.2241 26.9408 30.5601 29.7356C27.8961 32.5385 24.2961 34.1423 20.4161 34.2455C20.2801 34.2694 20.1361 34.2694 19.9921 34.2694ZM19.9921 34.6267C20.1361 34.6267 20.2801 34.6267 20.4321 34.6187C28.6481 34.3885 35.1201 27.5839 34.8801 19.4296C34.6481 11.4181 28.0321 5.0741 20.0081 5.08204C19.8641 5.08204 19.7201 5.08204 19.5761 5.08998C11.3521 5.32024 4.88807 12.1169 5.12007 20.2712C5.35207 28.2826 11.9681 34.6267 19.9921 34.6267Z" fill="white"/>
<path d="M23.0239 31.8315C23.7119 31.8315 24.1999 31.9665 24.4479 32.2444C24.5759 32.3794 24.6399 32.5541 24.6479 32.7367C25.2079 32.5461 25.7279 32.3715 26.1119 32.2841C26.4239 32.2047 26.7039 32.173 26.9519 32.165C27.5919 32.165 27.7439 32.2921 27.7919 32.3397L28.0239 32.173L26.7359 40.3353L26.3839 40.1447C26.2159 40.0494 26.0079 40.0097 25.7599 40.0097C25.0639 40.0097 24.1839 40.375 23.3359 40.7164C22.6879 40.9784 22.0719 41.2325 21.5679 41.3119C21.3839 41.3436 21.2159 41.3516 21.0719 41.3516C20.3119 41.3595 20.1839 40.9466 20.1759 40.7402L20.2239 40.3194C20.0159 40.3988 19.8159 40.4782 19.6159 40.5496C19.2079 40.7084 18.8239 40.8514 18.4959 40.9625C17.9199 41.161 17.1919 41.2722 16.4159 41.2801C14.5999 41.2881 12.6559 40.7481 11.4719 39.8986L11.3359 39.8033L12.5919 32.2603L12.9519 32.4747C13.6479 32.8876 14.5199 33.3957 15.9439 33.3957C16.8399 33.3878 17.8559 33.1734 18.9759 32.7446C20.4799 32.173 21.9599 31.8315 23.0239 31.8315Z" fill="white"/>
<path d="M20.8639 37.6197L20.4479 40.5813C20.3359 41.1212 20.9519 41.1292 21.5199 41.0418C22.8799 40.8354 25.2639 39.2156 26.5119 39.9143C26.6959 38.4296 27.0159 36.5478 27.0159 36.5478C27.0159 36.5478 26.7039 36.119 25.5279 36.3969C24.3599 36.6828 21.7439 37.8023 20.8639 37.6197Z" fill="#ED1C24"/>
<path d="M26.8879 37.3975C27.0159 36.5718 27.1599 35.6904 27.2879 34.9123C27.1119 34.8012 26.6319 34.6027 25.7439 34.817C24.5999 35.0949 22.1039 36.151 21.1599 36.0477L20.8159 38.255C20.9199 38.6203 21.3279 38.6997 21.9039 38.66C23.2479 38.5409 25.6319 36.7465 26.8879 37.3975Z" fill="#0066B3"/>
<path d="M20.4241 40.7798C20.5041 40.2161 21.2881 40.1923 21.8001 40.224C22.3201 40.2478 23.2721 40.2399 23.3521 39.8191C23.4481 39.2633 23.4881 38.5884 23.4881 38.5884L20.7681 38.6201L20.4241 40.7798Z" fill="#BE1E2D"/>
<path d="M11.6079 39.6922L12.2399 35.9445C13.3359 36.5877 15.0639 37.5166 18.5839 36.1668C21.4079 35.0949 24.0319 34.8964 23.9039 36.008C23.9199 36.0239 23.3279 39.851 23.3279 39.851C23.5359 38.533 20.1519 40.1051 18.3839 40.7165C16.4719 41.3834 13.3039 40.8991 11.6079 39.6922Z" fill="#ED1C24"/>
<path d="M18.7198 35.3885C15.3118 36.6827 13.5278 35.5314 12.4158 34.8724L12.0078 37.302C13.7038 38.4692 16.2238 38.89 18.7358 37.9372C20.3358 37.3258 23.3998 36.2778 23.7438 37.2226C23.8638 36.4286 23.9838 35.587 24.0878 34.8565C23.6558 34.134 21.2158 34.4357 18.7198 35.3885Z" fill="#0066B3"/>
<path d="M19.24 23.3434C20.104 23.3434 20.808 22.6447 20.808 21.7872C20.808 20.9297 20.104 20.231 19.24 20.231V20.7629C19.808 20.7629 20.272 21.2235 20.272 21.7872C20.272 22.3509 19.808 22.8114 19.24 22.8114V23.3434Z" fill="#0066B3"/>
<path fill-rule="evenodd" clip-rule="evenodd" d="M20.6004 22.5601C20.5124 22.5629 20.4187 22.5595 20.344 22.5417C20.2429 22.5176 20.1357 22.4631 20.0543 22.415C20.0105 22.4709 19.9609 22.5223 19.9065 22.5681L20.176 22.7799L20.4136 22.8179C20.4843 22.7387 20.547 22.6524 20.6004 22.5601Z" fill="#00427A"/>
<path d="M19.2401 23.3434C18.3761 23.3434 17.6721 22.6447 17.6721 21.7872C17.6721 20.9297 18.3761 20.231 19.2401 20.231V20.7629C18.6721 20.7629 18.2081 21.2235 18.2081 21.7872C18.2081 22.3509 18.6721 22.8114 19.2401 22.8114V23.3434Z" fill="#0066B3"/>
<path d="M20.8081 23.3434C21.6721 23.3434 22.3761 22.6447 22.3761 21.7872C22.3761 20.9297 21.6721 20.231 20.8081 20.231V20.7629C21.3761 20.7629 21.8401 21.2235 21.8401 21.7872C21.8401 22.3509 21.3761 22.8114 20.8081 22.8114V23.3434Z" fill="#F15A22"/>
<path d="M20.808 23.3434C19.944 23.3434 19.24 22.6447 19.24 21.7872C19.24 20.9297 19.944 20.231 20.808 20.231V20.7629C20.24 20.7629 19.776 21.2235 19.776 21.7872C19.776 22.3509 20.24 22.8114 20.808 22.8114V23.3434Z" fill="#F15A22"/>
<path fill-rule="evenodd" clip-rule="evenodd" d="M19.9804 21.1768C19.9013 21.125 19.7966 21.0649 19.696 21.033C19.6253 21.0134 19.5377 21.0056 19.4539 21.0038C19.5069 20.9139 19.5688 20.8297 19.6383 20.7524L19.88 20.8027L20.1257 21.0201C20.0721 21.0672 20.0233 21.1198 19.9804 21.1768Z" fill="#9F3A0D"/>
<path d="M20.808 21.8666C20.808 21.8428 20.808 21.811 20.808 21.7872C20.808 20.9297 20.104 20.231 19.24 20.231V20.7629C19.808 20.7629 20.272 21.2235 20.272 21.7872C20.272 21.811 20.272 21.8428 20.272 21.8666H20.808Z" fill="#0066B3"/>
<path d="M26.704 25.0663L27.112 24.6614C27.136 24.6376 27.136 24.5979 27.112 24.582L26.704 24.177C26.68 24.1532 26.64 24.1532 26.624 24.177L26.216 24.582C26.192 24.6058 26.192 24.6455 26.216 24.6614L26.624 25.0663C26.64 25.0902 26.68 25.0902 26.704 25.0663Z" fill="#0066B3"/>
<path d="M26.0719 11.2033C26.0319 11.0842 27.2799 11.0763 27.2799 11.8544C27.2799 12.3705 26.5359 12.6166 26.5359 13.1565C26.5359 13.4106 26.8079 13.5932 26.8879 13.5932C26.6959 12.7278 27.4879 13.1804 27.7039 13.3392C27.2799 12.1799 28.2399 12.1879 28.1439 11.648C28.0799 11.2748 27.2479 11.3859 26.9439 11.2033C26.4079 10.8698 25.7759 9.56768 25.3599 10.8698C26.1359 11.5844 25.6879 12.6405 24.6959 12.6405C24.6959 12.6405 24.6879 12.7913 24.6959 12.8072C25.8719 12.7516 26.2879 11.8941 26.0719 11.2033Z" fill="#0066B3"/>
<path d="M23.8719 10.3933L23.4639 9.89307L23.0559 10.3933L23.4639 10.8697L23.8719 10.3933Z" fill="#0066B3"/>
<path d="M20.5919 8.28954L20.0159 7.59082L19.4399 8.28954L20.0159 9.02002L20.5919 8.28954Z" fill="#0066B3"/>
<path d="M23.168 15.2687C23.472 15.1735 24 15.1655 24.368 15.4911C24.368 15.1496 24.072 14.84 23.968 14.8003C23.832 14.8321 23.368 15.0306 23.168 15.2687Z" fill="#0066B3"/>
<path d="M31.5599 17.4999C31.2639 17.6507 29.5359 18.4527 27.3279 18.1509C27.3519 18.0477 27.3679 17.9445 27.3839 17.8333C28.8559 17.6587 30.0479 17.4125 30.8159 16.9917C31.6799 16.5153 32.0639 15.364 31.6239 14.5144C31.6159 14.4906 31.5839 14.4906 31.5679 14.5065C31.3279 14.7844 29.8159 16.4121 27.4399 16.9202C27.4319 16.8011 27.4239 16.6741 27.4079 16.555C28.5599 15.9039 29.6959 15.1576 30.2319 14.4668C31.0479 13.4267 30.9679 12.1086 30.1999 11.4337C30.1919 11.4258 30.1839 11.4258 30.1679 11.4258C30.1599 11.4258 30.1439 11.4337 30.1439 11.4417C29.8959 11.8466 27.6079 15.5149 25.0959 17.1029C25.0639 17.1187 25.0319 17.1426 24.9999 17.1584C24.9279 17.1981 24.9199 17.2934 24.9839 17.349C25.2719 17.611 25.4559 17.9763 25.4559 18.3733C25.4559 19.072 24.9119 19.6595 24.1919 19.7786C23.8239 19.8501 23.2959 19.8263 22.7919 19.6595C22.7679 19.6516 22.7439 19.6675 22.7439 19.6913V21.9065C22.7439 21.9383 22.7999 21.9542 22.8079 21.9145C23.1199 21.1046 24.0399 20.9299 24.4399 20.9299C24.5839 21.7954 24.8399 22.51 25.1839 22.899C25.7359 23.5263 26.6239 23.5183 27.0159 23.0817C27.0239 23.0737 27.0239 23.0658 27.0239 23.0578C27.0239 23.0499 27.0159 23.042 27.0079 23.034C26.7759 22.907 25.4719 22.105 25.2159 20.8029C25.3199 20.7711 25.4159 20.7235 25.5199 20.6838C25.9439 21.3746 26.5519 21.9939 27.0479 22.2241C27.8799 22.6211 28.6399 22.4306 28.9759 21.851C28.9839 21.8271 28.9759 21.8033 28.9519 21.8033C28.4399 21.7636 26.8639 21.311 26.1919 20.2233C26.2719 20.1518 26.3439 20.0803 26.4159 20.0009C27.1199 20.5329 28.1119 21.0014 28.8159 21.0967C29.6479 21.2078 30.5839 20.9458 30.6079 19.9851C30.6079 19.9692 30.5919 19.9533 30.5679 19.9533C30.2719 19.9692 28.3199 20.0565 26.9279 19.2625C26.9759 19.1672 27.0239 19.0799 27.0639 18.9846C27.0639 18.9846 29.1679 19.4769 30.1679 19.3181C31.1599 19.1593 31.7359 18.4209 31.6239 17.5078C31.6159 17.4999 31.5839 17.4919 31.5599 17.4999Z" fill="#0066B3"/>
<path d="M24.752 14.538C25.176 14.6016 25.304 14.8874 25.328 14.9668C25.472 14.8477 25.6 14.4348 25.552 14.1569C25.312 12.8706 22.296 13.7202 20.776 13.1724C20.744 13.5455 21.24 14.149 21.72 14.3713C20.904 15.07 20.176 16.4833 20.032 18.2063C19.888 16.4833 19.16 15.078 18.344 14.3792C18.816 14.1569 19.32 13.5535 19.288 13.1803C17.768 13.7282 14.752 12.8706 14.512 14.1649C14.464 14.4348 14.592 14.8556 14.736 14.9747C14.76 14.8874 14.896 14.6095 15.312 14.546C17.44 14.2284 19.208 17.4758 17.608 18.7939C17.584 18.8177 17.6 18.8494 17.632 18.8494H22.432C22.464 18.8494 22.48 18.8097 22.456 18.7939C20.848 17.4679 22.624 14.2204 24.752 14.538Z" fill="#0066B3"/>
<path d="M15.6721 15.4911C16.0401 15.1735 16.5761 15.1735 16.8721 15.2687C16.6721 15.0226 16.2081 14.8241 16.0721 14.8003C15.9681 14.8479 15.6721 15.1496 15.6721 15.4911Z" fill="#0066B3"/>
<path d="M12.976 19.0003C13.016 19.0955 13.064 19.1908 13.112 19.2781C11.72 20.0721 9.76805 19.9848 9.47204 19.9689C9.44804 19.9689 9.43204 19.9848 9.43204 20.0007C9.45604 20.9614 10.392 21.2234 11.224 21.1123C11.936 21.017 12.928 20.5485 13.624 20.0166C13.696 20.096 13.768 20.1674 13.848 20.2389C13.176 21.3267 11.6 21.7792 11.088 21.8189C11.064 21.8189 11.048 21.8428 11.064 21.8666C11.4 22.4462 12.16 22.6368 12.992 22.2398C13.488 22.0016 14.096 21.3902 14.52 20.6994C14.616 20.747 14.72 20.7867 14.824 20.8185C14.56 22.1207 13.256 22.9147 13.032 23.0496C13.024 23.0576 13.016 23.0655 13.016 23.0735C13.016 23.0814 13.016 23.0893 13.024 23.0973C13.416 23.534 14.304 23.5419 14.856 22.9147C15.192 22.5256 15.448 21.811 15.6 20.9455C16 20.9455 16.928 21.1202 17.232 21.9301C17.248 21.9619 17.296 21.9539 17.296 21.9222V19.7069C17.296 19.6831 17.272 19.6672 17.248 19.6751C16.744 19.8419 16.216 19.8578 15.848 19.7942C15.128 19.6672 14.584 19.0876 14.584 18.3889C14.584 17.9839 14.768 17.6266 15.056 17.3646C15.12 17.309 15.112 17.2138 15.04 17.1741C15.008 17.1582 14.976 17.1344 14.944 17.1185C12.432 15.5305 10.144 11.8622 9.89604 11.4573C9.88804 11.4493 9.88005 11.4414 9.87205 11.4414C9.86405 11.4414 9.84804 11.4414 9.84004 11.4493C9.06404 12.1242 8.99204 13.4423 9.80804 14.4824C10.344 15.1652 11.472 15.9195 12.632 16.5706C12.616 16.6897 12.608 16.8168 12.6 16.9359C10.224 16.4277 8.71204 14.8 8.47204 14.5221C8.45604 14.5062 8.42404 14.5062 8.41604 14.5301C7.97604 15.3796 8.36004 16.5309 9.22404 17.0073C9.98405 17.4281 11.184 17.6743 12.656 17.849C12.672 17.9522 12.688 18.0633 12.712 18.1666C10.504 18.4603 8.77604 17.6584 8.48004 17.5155C8.45604 17.5075 8.43204 17.5155 8.43204 17.5393C8.32004 18.4524 8.90404 19.1829 9.88804 19.3496C10.872 19.5005 12.976 19.0003 12.976 19.0003Z" fill="#0066B3"/>
<path d="M27.3519 25.2491C27.2319 25.3364 26.9359 25.5667 26.6479 25.7572C26.3599 25.5587 26.0639 25.3364 25.9439 25.2491C25.5919 25.4158 25.3279 25.6937 25.2239 26.0351C24.7359 26.1145 23.5599 25.8446 23.6799 25.662C25.0559 23.7405 23.9999 22.5892 22.7359 22.6527V23.9469C22.7359 24.3598 22.3679 24.7012 21.9199 24.7012H21.0479C20.4239 24.7012 20.0079 25.3285 20.0079 25.3285C20.0079 25.3285 19.5999 24.7012 18.9679 24.7012H18.0959C17.6479 24.7012 17.2799 24.3677 17.2799 23.9469V22.6527C16.0159 22.5892 14.9599 23.7325 16.3359 25.662C16.4559 25.8446 15.1679 26.1384 14.5599 26.059C14.3999 25.8922 14.1679 25.789 13.9119 25.789C13.8079 25.789 13.7039 25.8049 13.6079 25.8446L11.1999 23.677C11.2879 23.4785 11.2719 23.272 11.1439 23.145C11.1119 23.1132 11.0799 23.0894 11.0399 23.0735C11.1439 22.7401 11.0799 22.3907 10.8479 22.1604C10.7199 22.0334 10.5439 21.954 10.3599 21.9302L10.3199 22.2954C10.3199 22.2954 9.81589 22.081 9.35989 22.3034C9.13589 22.7639 9.35189 23.2561 9.35189 23.2561L8.98389 23.2958C9.00789 23.4785 9.07989 23.6452 9.21589 23.7802C9.44789 24.0104 9.79989 24.074 10.1359 23.9707C10.1519 24.0104 10.1759 24.0422 10.2079 24.074C10.3279 24.1931 10.5279 24.2089 10.7199 24.1375L13.1119 26.2813C13.0479 26.4163 13.0239 26.5671 13.0479 26.7259C13.1039 27.0435 13.3759 27.3135 13.7199 27.3849C13.9199 27.4246 14.1199 27.4008 14.2799 27.3294L14.9359 27.909C14.9359 27.909 15.1279 28.0757 15.3519 27.8455C15.5919 27.6073 15.3919 27.4405 15.3919 27.4405L14.7759 26.8927C15.2879 26.5512 16.2159 26.313 16.9839 26.313C17.1199 26.313 17.1839 26.1939 17.1359 26.0828C16.7839 25.2332 17.5439 24.6139 18.3359 25.122C18.6799 25.3444 19.0319 25.7731 19.2959 26.4877C18.2879 26.7259 17.1119 27.2341 16.4639 27.9169C16.4639 27.9169 15.4959 29.0206 16.8079 29.6002C16.8079 29.6002 16.8559 29.6161 16.8639 29.5525C17.1839 27.901 18.8319 27.0435 19.4559 26.9085C19.4959 27.0118 19.4799 26.98 19.5199 27.0832C18.8879 27.3849 18.2639 27.9249 17.8879 28.5918C17.8879 28.5918 17.0479 29.8384 18.3359 30.3465C18.3359 30.3465 18.4159 30.3783 18.4399 30.3307C18.6239 28.5283 19.3679 27.7105 19.6399 27.4485C19.6559 27.5437 19.6639 27.639 19.6719 27.7422C19.6719 27.7422 19.4319 28.4012 19.2799 29.1476C19.2799 29.1476 19.0879 29.9575 19.1359 30.3227C19.2719 30.7197 19.9119 31.085 19.9999 31.1247C20.0959 31.085 20.7279 30.7197 20.8639 30.3227C20.9119 29.9575 20.7199 29.1476 20.7199 29.1476C20.5679 28.3933 20.3279 27.7422 20.3279 27.7422C20.3359 27.647 20.3439 27.5437 20.3599 27.4485C20.6319 27.7105 21.3759 28.5283 21.5599 30.3307C21.5759 30.3783 21.6639 30.3465 21.6639 30.3465C22.9519 29.8384 22.1119 28.5918 22.1119 28.5918C21.7359 27.9249 21.1119 27.377 20.4799 27.0832C20.5199 26.98 20.5039 27.0118 20.5439 26.9085C21.1759 27.0515 22.8159 27.901 23.1359 29.5525C23.1439 29.6081 23.1919 29.6002 23.1919 29.6002C24.5039 29.0285 23.5359 27.9169 23.5359 27.9169C22.8879 27.2341 21.7119 26.7259 20.7039 26.4877C20.9679 25.7731 21.3199 25.3364 21.6639 25.122C22.4559 24.6218 23.2239 25.2332 22.8639 26.0828C22.8159 26.1939 22.8799 26.313 23.0159 26.313C23.7839 26.313 24.8079 26.5592 25.3199 26.9641C25.5679 27.3691 26.0559 27.647 26.6239 27.647C27.4399 27.647 28.0959 27.0753 28.0959 26.3766C28.1199 25.8843 27.8079 25.4635 27.3519 25.2491Z" fill="#0066B3"/>
<path d="M15.808 12.8152H17.328C18.608 12.8152 19.184 12.0371 19.36 11.3543H20.664C20.84 12.0292 21.416 12.8152 22.696 12.8152H24.224C24.224 12.8152 24.488 12.4579 24.56 12.2753C24.8 11.6322 24.496 11.3384 24.048 11.3384L23.464 11.8624L22.888 11.3384C22.44 11.3384 22.128 11.6401 22.376 12.2753C22.408 12.3547 22.48 12.4738 22.552 12.585C22.008 12.5135 21.32 12.1403 21.168 11.3543C21.168 11.3543 21.568 10.727 21.664 10.4729C22.024 9.55983 21.568 9.17871 20.888 9.17871L20.016 10.195L19.144 9.17871C18.472 9.17871 18.008 9.55189 18.368 10.4729C18.464 10.727 18.864 11.3543 18.864 11.3543C18.712 12.1403 18.024 12.5056 17.48 12.585C17.552 12.4817 17.624 12.3626 17.656 12.2753C17.896 11.6322 17.592 11.3384 17.144 11.3384L16.56 11.8624L15.976 11.3384C15.528 11.3384 15.224 11.6401 15.464 12.2753C15.544 12.45 15.808 12.8073 15.808 12.8152Z" fill="#0066B3"/>
<path d="M12.3279 13.3392C12.5439 13.1804 13.3359 12.7278 13.1439 13.5932C13.2239 13.5932 13.4959 13.4106 13.4959 13.1565C13.4959 12.6166 12.7519 12.3705 12.7519 11.8544C12.7519 11.0842 13.9999 11.0842 13.9599 11.2033C13.7439 11.8941 14.1519 12.7516 15.3359 12.8072C15.3439 12.7913 15.3359 12.6405 15.3359 12.6405C14.3519 12.6405 13.8959 11.5844 14.6719 10.8698C14.2559 9.56768 13.6239 10.8698 13.0879 11.2033C12.7839 11.3939 11.9519 11.2827 11.8879 11.648C11.7919 12.1879 12.7519 12.1799 12.3279 13.3392Z" fill="#0066B3"/>
<path d="M16.9759 10.3933L16.5679 9.89307L16.1599 10.3933L16.5679 10.8697L16.9759 10.3933Z" fill="#0066B3"/>
</svg>
