<svg width="22" height="17" viewBox="0 0 22 17" fill="none" xmlns="http://www.w3.org/2000/svg">
<path d="M8 0C8.21875 0 8.42188 0.0703125 8.60938 0.210938L8.70312 0.28125L11.4219 3H18.0078C18.5234 3 19 3.125 19.4375 3.375C19.8906 3.625 20.2578 3.96875 20.5391 4.40625C20.8203 4.82812 20.9688 5.29688 20.9844 5.8125L21.0078 13.9922C21.0078 14.5234 20.8828 15.0156 20.6328 15.4688C20.3828 15.9062 20.0391 16.2656 19.6016 16.5469C19.1641 16.8125 18.6875 16.9609 18.1719 16.9922H3.99219C3.47656 16.9922 2.99219 16.8672 2.53906 16.6172C2.10156 16.3672 1.74219 16.0312 1.46094 15.6094C1.17969 15.1719 1.03125 14.6953 1.01562 14.1797L0.992188 3C0.992188 2.46875 1.11719 1.98438 1.36719 1.54688C1.61719 1.09375 1.96094 0.734375 2.39844 0.46875C2.83594 0.1875 3.3125 0.03125 3.82812 0H8ZM7.57812 1.99219H3.99219C3.74219 1.99219 3.52344 2.07812 3.33594 2.25C3.14844 2.42188 3.03906 2.63281 3.00781 2.88281V13.9922C3.00781 14.2578 3.08594 14.4844 3.24219 14.6719C3.41406 14.8594 3.625 14.9688 3.875 15H18.0078C18.2578 15 18.4766 14.9141 18.6641 14.7422C18.8516 14.5703 18.9609 14.3594 18.9922 14.1094V6C18.9922 5.75 18.9062 5.53125 18.7344 5.34375C18.5781 5.14062 18.375 5.03125 18.125 5.01562L11 4.99219C10.7812 4.99219 10.5781 4.92969 10.3906 4.80469L10.2969 4.71094L7.57812 1.99219ZM11 12.6562L9.19531 13.5703C9.07031 13.6328 8.9375 13.6406 8.79688 13.5938C8.67188 13.5469 8.57812 13.4766 8.51562 13.3828C8.46875 13.2734 8.45312 13.1641 8.46875 13.0547L8.77344 10.8984L7.69531 9.79688C7.58594 9.70312 7.53125 9.58594 7.53125 9.44531C7.53125 9.30469 7.57031 9.19531 7.64844 9.11719C7.74219 9.02344 7.84375 8.96875 7.95312 8.95312L9.66406 8.67188L10.5547 6.89062C10.6172 6.76562 10.7109 6.6875 10.8359 6.65625C10.9766 6.60938 11.1016 6.61719 11.2109 6.67969C11.3203 6.72656 11.3984 6.79688 11.4453 6.89062L12.3359 8.67188L14.0469 8.95312C14.1719 8.96875 14.2734 9.03906 14.3516 9.16406C14.4453 9.27344 14.4766 9.39062 14.4453 9.51562C14.4297 9.625 14.3828 9.71875 14.3047 9.79688L13.2266 10.8984L13.5312 13.0547C13.5469 13.1953 13.5156 13.3203 13.4375 13.4297C13.3594 13.5391 13.2578 13.6016 13.1328 13.6172C13.0078 13.6328 12.8984 13.6172 12.8047 13.5703L11 12.6562Z" fill="#18191B"/>
</svg>
