<svg width="18" height="20" viewBox="0 0 18 20" fill="none" xmlns="http://www.w3.org/2000/svg">
<path d="M8.13281 1.00586L4.125 7.99023C4 8.20898 3.96094 8.43555 4.00781 8.66992C4.05469 8.9043 4.16406 9.09961 4.33594 9.25586C4.52344 9.41211 4.74219 9.49023 4.99219 9.49023H13.0078C13.2578 9.49023 13.4688 9.41211 13.6406 9.25586C13.8281 9.09961 13.9453 8.9043 13.9922 8.66992C14.0391 8.43555 14 8.20898 13.875 7.99023L9.86719 1.00586C9.74219 0.787109 9.5625 0.638672 9.32812 0.560547C9.10938 0.482422 8.88281 0.482422 8.64844 0.560547C8.42969 0.638672 8.25781 0.787109 8.13281 1.00586ZM9 3.51367L11.2734 7.49805H6.72656L9 3.51367ZM13.9922 11.5059C13.2734 11.5059 12.6094 11.6855 12 12.0449C11.3906 12.4043 10.9062 12.8887 10.5469 13.498C10.1875 14.1074 10.0078 14.7793 10.0078 15.5137C10.0078 16.2324 10.1875 16.8965 10.5469 17.5059C10.9062 18.1152 11.3906 18.5996 12 18.959C12.6094 19.3184 13.2734 19.498 13.9922 19.498C14.7266 19.498 15.3984 19.3184 16.0078 18.959C16.6172 18.5996 17.1016 18.1152 17.4609 17.5059C17.8203 16.8965 18 16.2324 18 15.5137C18 14.7793 17.8203 14.1074 17.4609 13.498C17.1016 12.8887 16.6172 12.4043 16.0078 12.0449C15.3984 11.6855 14.7266 11.5059 13.9922 11.5059ZM13.9922 13.498C14.5547 13.498 15.0312 13.6934 15.4219 14.084C15.8125 14.4746 16.0078 14.9512 16.0078 15.5137C16.0078 16.0605 15.8125 16.5293 15.4219 16.9199C15.0312 17.3105 14.5547 17.5059 13.9922 17.5059C13.4453 17.5059 12.9766 17.3105 12.5859 16.9199C12.1953 16.5293 12 16.0605 12 15.5137C12 14.9512 12.1953 14.4746 12.5859 14.084C12.9766 13.6934 13.4453 13.498 13.9922 13.498ZM6 11.5059H1.99219C1.44531 11.5059 0.976562 11.7012 0.585938 12.0918C0.195312 12.4824 0 12.9512 0 13.498V17.5059C0 18.0527 0.195312 18.5215 0.585938 18.9121C0.976562 19.3027 1.44531 19.498 1.99219 19.498H6C6.54688 19.498 7.01562 19.3027 7.40625 18.9121C7.79688 18.5215 7.99219 18.0527 7.99219 17.5059V13.498C7.99219 12.9512 7.79688 12.4824 7.40625 12.0918C7.01562 11.7012 6.54688 11.5059 6 11.5059ZM1.99219 13.498H6V17.5059H1.99219V13.498Z" fill="#18191B"/>
</svg>
